<svg width="226" height="363" viewBox="0 0 226 363" fill="none" xmlns="http://www.w3.org/2000/svg">
<path d="M205.623 0L223 37.7601H216.679L211.054 25.4518H195.209L189.389 37.7601H186.27L204.064 0H205.623ZM196.295 23.057H209.912L203.201 8.43754L196.295 23.057Z" fill="black"/>
<path d="M149.407 0.834961H161.191C164.978 0.834961 168.236 1.18769 170.965 1.89314C173.694 2.59858 175.969 3.73101 177.788 5.29043C179.867 7.07261 181.427 9.1147 182.466 11.4167C183.524 13.7187 184.053 16.2342 184.053 18.9631C184.053 21.5622 183.58 24.0034 182.633 26.2868C181.705 28.5702 180.331 30.5659 178.512 32.2738C176.711 33.9632 174.474 35.2998 171.801 36.2838C169.146 37.2677 166.102 37.7596 162.667 37.7596H149.407V0.834961ZM155.617 35.0585H162.216C164.295 35.0585 166.254 34.7151 168.092 34.0282C169.93 33.3413 171.526 32.3203 172.881 30.9651C174.255 29.6098 175.332 27.9483 176.112 25.9805C176.91 23.9941 177.309 21.7014 177.309 19.1024C177.309 16.8189 176.938 14.7304 176.195 12.8369C175.453 10.9247 174.413 9.28178 173.076 7.90802C171.74 6.53425 170.143 5.46679 168.287 4.70565C166.449 3.9445 164.435 3.56393 162.244 3.56393H155.617V35.0585Z" fill="black"/>
<path d="M124.351 0L141.727 37.7601H135.406L129.781 25.4518H113.936L108.116 37.7601H104.997L122.791 0H124.351ZM115.022 23.057H128.639L121.928 8.43754L115.022 23.057Z" fill="black"/>
<path d="M77.9634 0.834961L91.9146 30.2132L104.863 0.834961H107.815L91.0513 38.6229H89.4362L71.4194 0.834961H77.9634Z" fill="black"/>
<path d="M58.2782 0L75.6546 37.7601H69.3334L63.7083 25.4518H47.8636L42.0436 37.7601H38.9248L56.7188 0H58.2782ZM48.9496 23.057H62.5666L55.8556 8.43754L48.9496 23.057Z" fill="black"/>
<path d="M2 0.834961H5.48083L29.6796 27.8462H29.958V0.834961H32.687V38.6229H31.239L5.03529 8.60418H4.81251V37.7596H2V0.834961Z" fill="black"/>
<path d="M207.127 169.352C207.127 169.352 206.623 158.417 205.658 153.163C197.808 110.433 159.437 78 113.284 78C67.1308 78 28.7595 110.433 20.9095 153.163C19.9442 158.417 19.4404 169.352 19.4404 169.352" stroke="#3A3531" stroke-width="2.02031"/>
<path d="M207.127 169.352C207.127 169.352 206.623 158.417 205.658 153.163C197.808 110.433 159.437 78 113.284 78C67.1308 78 28.7595 110.433 20.9095 153.163C19.9442 158.417 19.4404 169.352 19.4404 169.352" stroke="url(#paint0_linear_348_1829)" stroke-width="2.02031"/>
<path d="M207.127 169.352C207.127 169.352 206.623 158.417 205.658 153.163C197.808 110.433 159.437 78 113.284 78C67.1308 78 28.7595 110.433 20.9095 153.163C19.9442 158.417 19.4404 169.352 19.4404 169.352" stroke="black" stroke-width="2.02031"/>
<path d="M51.8276 119.522L51.8276 169.351" stroke="#3A3531" stroke-width="2.02031"/>
<path d="M51.8276 119.522L51.8276 169.351" stroke="url(#paint1_linear_348_1829)" stroke-width="2.02031"/>
<path d="M51.8276 119.522L51.8276 169.351" stroke="black" stroke-width="2.02031"/>
<path d="M71.7583 102.913L71.7583 169.351" stroke="#3A3531" stroke-width="2.02031"/>
<path d="M71.7583 102.913L71.7583 169.351" stroke="url(#paint2_linear_348_1829)" stroke-width="2.02031"/>
<path d="M71.7583 102.913L71.7583 169.351" stroke="black" stroke-width="2.02031"/>
<path d="M92.521 93.7783L92.521 169.351" stroke="#3A3531" stroke-width="2.02031"/>
<path d="M92.521 93.7783L92.521 169.351" stroke="url(#paint3_linear_348_1829)" stroke-width="2.02031"/>
<path d="M92.521 93.7783L92.521 169.351" stroke="black" stroke-width="2.02031"/>
<path d="M113.283 91.2861L113.283 169.351" stroke="#3A3531" stroke-width="2.02031"/>
<path d="M113.283 91.2861L113.283 169.351" stroke="url(#paint4_linear_348_1829)" stroke-width="2.02031"/>
<path d="M113.283 91.2861L113.283 169.351" stroke="black" stroke-width="2.02031"/>
<path d="M133.214 93.7783L133.214 169.351" stroke="#3A3531" stroke-width="2.02031"/>
<path d="M133.214 93.7783L133.214 169.351" stroke="url(#paint5_linear_348_1829)" stroke-width="2.02031"/>
<path d="M133.214 93.7783L133.214 169.351" stroke="black" stroke-width="2.02031"/>
<path d="M153.146 102.083L153.146 169.351" stroke="#3A3531" stroke-width="2.02031"/>
<path d="M153.146 102.083L153.146 169.351" stroke="url(#paint6_linear_348_1829)" stroke-width="2.02031"/>
<path d="M153.146 102.083L153.146 169.351" stroke="black" stroke-width="2.02031"/>
<path d="M173.909 117.862L173.909 169.352" stroke="#3A3531" stroke-width="2.02031"/>
<path d="M173.909 117.862L173.909 169.352" stroke="url(#paint7_linear_348_1829)" stroke-width="2.02031"/>
<path d="M173.909 117.862L173.909 169.352" stroke="black" stroke-width="2.02031"/>
<path d="M194.602 362.02V172.578C194.602 172.578 194.166 162.847 193.329 158.172C186.529 120.147 153.29 91.2861 113.311 91.2861C73.3306 91.2861 40.0916 120.147 33.2916 158.172C32.4554 162.847 32.019 172.578 32.019 172.578V362.02" stroke="#3A3531" stroke-width="2.02031"/>
<path d="M194.602 362.02V172.578C194.602 172.578 194.166 162.847 193.329 158.172C186.529 120.147 153.29 91.2861 113.311 91.2861C73.3306 91.2861 40.0916 120.147 33.2916 158.172C32.4554 162.847 32.019 172.578 32.019 172.578V362.02" stroke="url(#paint8_linear_348_1829)" stroke-width="2.02031"/>
<path d="M194.602 362.02V172.578C194.602 172.578 194.166 162.847 193.329 158.172C186.529 120.147 153.29 91.2861 113.311 91.2861C73.3306 91.2861 40.0916 120.147 33.2916 158.172C32.4554 162.847 32.019 172.578 32.019 172.578V362.02" stroke="black" stroke-width="2.02031"/>
<path d="M2 361.191C2 352.477 9.06449 345.412 17.779 345.412H19.4399V361.191H2V361.191Z" stroke="black" stroke-width="2.02031"/>
<path d="M224.567 361.191C224.567 352.477 217.503 345.412 208.788 345.412H207.127V361.191H224.567V361.191Z" stroke="black" stroke-width="2.02031"/>
<path d="M19.4404 168.521V361.191H31.8975" stroke="black" stroke-width="2.02031"/>
<path d="M207.127 169.353V361.192H194.669" stroke="black" stroke-width="2.02031"/>
<path d="M32.3101 169.768H206.709" stroke="black" stroke-width="2.02031"/>
<path d="M200.807 184.054H207.127M194.669 345.41H207.127M195.071 288.296H207.127" stroke="black" stroke-width="2.02031"/>
<path d="M20.27 209.069L25.5782 209.069M20.27 329.217H31.8966M27.7443 132.81L38.9557 138.208M57.2261 96.2695L64.7003 107.066M193.573 135.07L187.61 138.208M25.5782 303.333L31.8966 303.333" stroke="black" stroke-width="2.02031"/>
<path d="M180.136 126.167L190.517 117.862" stroke="black" stroke-width="2.02031"/>
<path d="M142.933 89.7892L145.255 83.8125" stroke="black" stroke-width="2.02031"/>
<path d="M157.769 207.658C157.731 203.167 155.997 202.478 150.136 202.49C150.02 200.768 148.748 197.254 144.585 196.979C140.421 196.703 138.88 200.078 138.649 202.489C129.313 202.489 129.313 209.693 129.313 211.431H123.106M152.874 207.658H162.76" stroke="black" stroke-width="1.76072" stroke-linecap="round"/>
<path d="M137.039 213.039C137.039 210.526 138.761 208.293 142.78 208.293C142.78 207.553 143.239 206.072 145.077 206.072" stroke="black" stroke-width="1.76072" stroke-linecap="round"/>
<path d="M31.9629 230.69C31.9629 229.534 32.1596 227.444 35.2469 227.444C35.3939 225.842 36.3736 223.599 39.02 223.782C41.6664 223.965 42.475 226.3 42.5485 227.445C46.2738 227.437 47.3764 227.895 47.4002 230.879M45.5584 230.879H49.9405" stroke="black" stroke-width="1.76072" stroke-linecap="round"/>
<path d="M114.8 192.943C114.8 191.637 113.774 190.399 110.277 190.399C110.11 188.586 109.001 186.05 106.003 186.257C103.005 186.464 102.09 189.105 102.006 190.4C97.7867 190.39 96.5378 190.908 96.5108 194.283M98.597 194.283H93.6335" stroke="black" stroke-width="1.76072" stroke-linecap="round"/>
<path d="M126.857 239.832C126.857 238.58 126.598 236.313 122.535 236.313C122.341 234.575 121.052 232.143 117.569 232.342C114.085 232.54 113.021 235.072 112.924 236.314H110.245" stroke="black" stroke-width="1.76072" stroke-linecap="round"/>
<path d="M36.8501 298.688L36.5951 307.337L38.9422 306.999L39.2041 298.629C39.1846 297.849 39.2077 296.676 38.1614 296.703C37.1152 296.729 36.8843 297.962 36.8501 298.688Z" stroke="black" stroke-width="1.53297"/>
<path d="M44.4118 297.553L44.2614 306.196L46.9224 305.851L47.0274 297.488C47.0079 296.708 46.8203 295.483 45.7217 295.51C44.6231 295.538 44.446 296.828 44.4118 297.553Z" stroke="black" stroke-width="1.53297"/>
<path d="M52.9136 296.334L52.8679 304.977L55.6858 304.628L55.6338 296.266C55.6144 295.486 55.3221 294.263 54.2235 294.291C53.1249 294.318 52.9478 295.608 52.9136 296.334Z" stroke="black" stroke-width="1.53297"/>
<path d="M62.9055 250.365L67.6084 248.909" stroke="black" stroke-width="1.11489" stroke-linecap="round"/>
<path d="M71.127 270.404L74.8945 269.707L78.3373 270.404" stroke="black" stroke-width="1.11489" stroke-linecap="round"/>
<path d="M55.3753 266.416L61.5378 264.883" stroke="black" stroke-width="1.11489" stroke-linecap="round"/>
<path d="M46.4769 265.553L61.5379 261.802" stroke="black" stroke-width="1.11489" stroke-linecap="round"/>
<path d="M35.5862 275.335L41.6484 273.941" stroke="black" stroke-width="1.11489" stroke-linecap="round"/>
<path d="M46.5081 272.842L52.5703 271.448" stroke="black" stroke-width="1.11489" stroke-linecap="round"/>
<path d="M48.1155 278.737L54.1777 277.343" stroke="black" stroke-width="1.11489" stroke-linecap="round"/>
<path d="M39.5418 277.129L45.604 275.735" stroke="black" stroke-width="1.11489" stroke-linecap="round"/>
<path d="M56.1536 273.913L62.2158 272.52" stroke="black" stroke-width="1.11489" stroke-linecap="round"/>
<path d="M56.1536 279.808L62.2158 278.414" stroke="black" stroke-width="1.11489" stroke-linecap="round"/>
<path d="M70.984 303.347L74.4218 303.068" stroke="black" stroke-width="1.11489" stroke-linecap="round"/>
<path d="M32.4918 285.23L49.6618 281.885" stroke="black" stroke-width="1.11489" stroke-linecap="round"/>
<path d="M86.7314 271.99L91.6788 273.105" stroke="black" stroke-width="1.11489" stroke-linecap="round"/>
<path d="M84.5234 269.305L91.4699 270.952" stroke="black" stroke-width="1.11489" stroke-linecap="round"/>
<path d="M87.3604 248.407C87.065 248.32 86.7552 248.489 86.6683 248.784C86.5815 249.08 86.7505 249.389 87.0459 249.476L87.3604 248.407ZM87.0459 249.476L91.3479 250.741L91.6623 249.671L87.3604 248.407L87.0459 249.476Z" fill="black"/>
<path d="M66.6634 288.505L74.9174 287.17L80.0591 287.655" stroke="black" stroke-width="1.11489" stroke-linecap="round"/>
<path d="M77.7126 193.099L77.7578 188.478" stroke="black" stroke-width="1.73964"/>
<path d="M77.8777 184.156L77.9229 179.535" stroke="black" stroke-width="1.73964"/>
<path d="M102.231 245.566L102.024 241.747" stroke="black" stroke-width="1.17382" stroke-linecap="round"/>
<path d="M44.9577 261.785L45.0816 258.181" stroke="black" stroke-width="1.17382" stroke-linecap="round"/>
<path d="M75.6303 225.135L75.6758 226.959L74.7769 313.937M31.9326 291.048L61.3097 285.122" stroke="black" stroke-width="1.67233"/>
<path d="M92.0482 249.062L102.309 245.763L116.14 276.003" stroke="black" stroke-width="1.73964"/>
<path d="M97.3562 280.569C97.3442 280.089 96.9451 279.71 96.4649 279.722C95.9846 279.734 95.6051 280.133 95.6171 280.613L97.3562 280.569ZM95.8298 289.126C95.8419 289.606 96.2409 289.986 96.7211 289.974C97.2014 289.962 97.581 289.563 97.5689 289.082L95.8298 289.126ZM105.307 282.196C105.295 281.716 104.896 281.336 104.415 281.348C103.935 281.36 103.556 281.759 103.568 282.24L105.307 282.196ZM103.765 290.145C103.777 290.625 104.176 291.004 104.657 290.992C105.137 290.98 105.516 290.581 105.504 290.101L103.765 290.145ZM98.1468 263.513C98.1348 263.033 97.7357 262.653 97.2555 262.665C96.7752 262.677 96.3957 263.076 96.4077 263.556L98.1468 263.513ZM96.4989 267.205C96.5109 267.685 96.9099 268.065 97.3901 268.053C97.8704 268.041 98.25 267.642 98.238 267.161L96.4989 267.205ZM106.082 264.531C106.07 264.051 105.671 263.672 105.191 263.684C104.711 263.696 104.331 264.095 104.343 264.575L106.082 264.531ZM104.434 268.223C104.446 268.704 104.845 269.083 105.326 269.071C105.806 269.059 106.185 268.66 106.173 268.18L104.434 268.223ZM95.6171 280.613L95.8298 289.126L97.5689 289.082L97.3562 280.569L95.6171 280.613ZM103.568 282.24L103.765 290.145L105.504 290.101L105.307 282.196L103.568 282.24ZM96.4077 263.556L96.4989 267.205L98.238 267.161L98.1468 263.513L96.4077 263.556ZM104.343 264.575C104.343 264.578 104.343 264.58 104.343 264.583C104.343 264.586 104.343 264.589 104.343 264.592C104.344 264.594 104.344 264.597 104.344 264.6C104.344 264.603 104.344 264.605 104.344 264.608C104.344 264.611 104.344 264.614 104.344 264.616C104.344 264.619 104.344 264.622 104.344 264.625C104.344 264.627 104.344 264.63 104.345 264.633C104.345 264.636 104.345 264.638 104.345 264.641C104.345 264.644 104.345 264.647 104.345 264.649C104.345 264.652 104.345 264.655 104.345 264.658C104.345 264.66 104.345 264.663 104.345 264.666C104.345 264.669 104.345 264.671 104.346 264.674C104.346 264.677 104.346 264.679 104.346 264.682C104.346 264.685 104.346 264.688 104.346 264.69C104.346 264.693 104.346 264.696 104.346 264.699C104.346 264.701 104.346 264.704 104.346 264.707C104.346 264.709 104.347 264.712 104.347 264.715C104.347 264.717 104.347 264.72 104.347 264.723C104.347 264.726 104.347 264.728 104.347 264.731C104.347 264.734 104.347 264.736 104.347 264.739C104.347 264.742 104.347 264.744 104.347 264.747C104.347 264.75 104.348 264.752 104.348 264.755C104.348 264.758 104.348 264.761 104.348 264.763C104.348 264.766 104.348 264.769 104.348 264.771C104.348 264.774 104.348 264.777 104.348 264.779C104.348 264.782 104.348 264.785 104.348 264.787C104.348 264.79 104.349 264.793 104.349 264.795C104.349 264.798 104.349 264.801 104.349 264.803C104.349 264.806 104.349 264.809 104.349 264.811C104.349 264.814 104.349 264.816 104.349 264.819C104.349 264.822 104.349 264.824 104.349 264.827C104.349 264.83 104.35 264.832 104.35 264.835C104.35 264.838 104.35 264.84 104.35 264.843C104.35 264.846 104.35 264.848 104.35 264.851C104.35 264.853 104.35 264.856 104.35 264.859C104.35 264.861 104.35 264.864 104.35 264.867C104.35 264.869 104.35 264.872 104.351 264.874C104.351 264.877 104.351 264.88 104.351 264.882C104.351 264.885 104.351 264.888 104.351 264.89C104.351 264.893 104.351 264.895 104.351 264.898C104.351 264.901 104.351 264.903 104.351 264.906C104.351 264.908 104.351 264.911 104.352 264.914C104.352 264.916 104.352 264.919 104.352 264.921C104.352 264.924 104.352 264.927 104.352 264.929C104.352 264.932 104.352 264.934 104.352 264.937C104.352 264.939 104.352 264.942 104.352 264.945C104.352 264.947 104.352 264.95 104.353 264.952C104.353 264.955 104.353 264.958 104.353 264.96C104.353 264.963 104.353 264.965 104.353 264.968C104.353 264.97 104.353 264.973 104.353 264.976C104.353 264.978 104.353 264.981 104.353 264.983C104.353 264.986 104.353 264.988 104.353 264.991C104.354 264.994 104.354 264.996 104.354 264.999C104.354 265.001 104.354 265.004 104.354 265.006C104.354 265.009 104.354 265.011 104.354 265.014C104.354 265.016 104.354 265.019 104.354 265.022C104.354 265.024 104.354 265.027 104.354 265.029C104.354 265.032 104.355 265.034 104.355 265.037C104.355 265.039 104.355 265.042 104.355 265.044C104.355 265.047 104.355 265.049 104.355 265.052C104.355 265.055 104.355 265.057 104.355 265.06C104.355 265.062 104.355 265.065 104.355 265.067C104.355 265.07 104.356 265.072 104.356 265.075C104.356 265.077 104.356 265.08 104.356 265.082C104.356 265.085 104.356 265.087 104.356 265.09C104.356 265.092 104.356 265.095 104.356 265.097C104.356 265.1 104.356 265.102 104.356 265.105C104.356 265.107 104.356 265.11 104.357 265.112C104.357 265.115 104.357 265.117 104.357 265.12C104.357 265.122 104.357 265.125 104.357 265.127C104.357 265.13 104.357 265.132 104.357 265.135C104.357 265.137 104.357 265.14 104.357 265.142C104.357 265.145 104.357 265.147 104.357 265.15C104.358 265.152 104.358 265.155 104.358 265.157C104.358 265.16 104.358 265.162 104.358 265.165C104.358 265.167 104.358 265.17 104.358 265.172C104.358 265.175 104.358 265.177 104.358 265.18C104.358 265.182 104.358 265.184 104.358 265.187C104.358 265.189 104.358 265.192 104.359 265.194C104.359 265.197 104.359 265.199 104.359 265.202C104.359 265.204 104.359 265.207 104.359 265.209C104.359 265.212 104.359 265.214 104.359 265.216C104.359 265.219 104.359 265.221 104.359 265.224C104.359 265.226 104.359 265.229 104.359 265.231C104.36 265.234 104.36 265.236 104.36 265.238C104.36 265.241 104.36 265.243 104.36 265.246C104.36 265.248 104.36 265.251 104.36 265.253C104.36 265.256 104.36 265.258 104.36 265.26C104.36 265.263 104.36 265.265 104.36 265.268C104.36 265.27 104.361 265.273 104.361 265.275C104.361 265.277 104.361 265.28 104.361 265.282C104.361 265.285 104.361 265.287 104.361 265.29C104.361 265.292 104.361 265.294 104.361 265.297C104.361 265.299 104.361 265.302 104.361 265.304C104.361 265.307 104.361 265.309 104.361 265.311C104.362 265.314 104.362 265.316 104.362 265.319C104.362 265.321 104.362 265.323 104.362 265.326C104.362 265.328 104.362 265.331 104.362 265.333C104.362 265.335 104.362 265.338 104.362 265.34C104.362 265.343 104.362 265.345 104.362 265.347C104.362 265.35 104.363 265.352 104.363 265.355C104.363 265.357 104.363 265.359 104.363 265.362C104.363 265.364 104.363 265.367 104.363 265.369C104.363 265.371 104.363 265.374 104.363 265.376C104.363 265.379 104.363 265.381 104.363 265.383C104.363 265.386 104.363 265.388 104.363 265.39C104.364 265.393 104.364 265.395 104.364 265.398C104.364 265.4 104.364 265.402 104.364 265.405C104.364 265.407 104.364 265.409 104.364 265.412C104.364 265.414 104.364 265.417 104.364 265.419C104.364 265.421 104.364 265.424 104.364 265.426C104.364 265.428 104.364 265.431 104.365 265.433C104.365 265.436 104.365 265.438 104.365 265.44C104.365 265.443 104.365 265.445 104.365 265.447C104.365 265.45 104.365 265.452 104.365 265.454C104.365 265.457 104.365 265.459 104.365 265.461C104.365 265.464 104.365 265.466 104.365 265.469C104.365 265.471 104.366 265.473 104.366 265.476C104.366 265.478 104.366 265.48 104.366 265.483C104.366 265.485 104.366 265.487 104.366 265.49C104.366 265.492 104.366 265.494 104.366 265.497C104.366 265.499 104.366 265.501 104.366 265.504C104.366 265.506 104.366 265.508 104.366 265.511C104.367 265.513 104.367 265.515 104.367 265.518C104.367 265.52 104.367 265.522 104.367 265.525C104.367 265.527 104.367 265.529 104.367 265.532C104.367 265.534 104.367 265.536 104.367 265.539C104.367 265.541 104.367 265.543 104.367 265.546C104.367 265.548 104.367 265.55 104.368 265.553C104.368 265.555 104.368 265.557 104.368 265.56C104.368 265.562 104.368 265.564 104.368 265.567C104.368 265.569 104.368 265.571 104.368 265.574C104.368 265.576 104.368 265.578 104.368 265.58C104.368 265.583 104.368 265.585 104.368 265.587C104.368 265.59 104.368 265.592 104.369 265.594C104.369 265.597 104.369 265.599 104.369 265.601C104.369 265.604 104.369 265.606 104.369 265.608C104.369 265.61 104.369 265.613 104.369 265.615C104.369 265.617 104.369 265.62 104.369 265.622C104.369 265.624 104.369 265.627 104.369 265.629C104.369 265.631 104.37 265.633 104.37 265.636C104.37 265.638 104.37 265.64 104.37 265.643C104.37 265.645 104.37 265.647 104.37 265.65C104.37 265.652 104.37 265.654 104.37 265.656C104.37 265.659 104.37 265.661 104.37 265.663C104.37 265.666 104.37 265.668 104.37 265.67C104.371 265.672 104.371 265.675 104.371 265.677C104.371 265.679 104.371 265.682 104.371 265.684C104.371 265.686 104.371 265.688 104.371 265.691C104.371 265.693 104.371 265.695 104.371 265.697C104.371 265.7 104.371 265.702 104.371 265.704C104.371 265.707 104.371 265.709 104.371 265.711C104.372 265.713 104.372 265.716 104.372 265.718C104.372 265.72 104.372 265.722 104.372 265.725C104.372 265.727 104.372 265.729 104.372 265.732C104.372 265.734 104.372 265.736 104.372 265.738C104.372 265.741 104.372 265.743 104.372 265.745C104.372 265.747 104.372 265.75 104.372 265.752C104.373 265.754 104.373 265.756 104.373 265.759C104.373 265.761 104.373 265.763 104.373 265.765C104.373 265.768 104.373 265.77 104.373 265.772C104.373 265.774 104.373 265.777 104.373 265.779C104.373 265.781 104.373 265.784 104.373 265.786C104.373 265.788 104.373 265.79 104.374 265.793C104.374 265.795 104.374 265.797 104.374 265.799C104.374 265.802 104.374 265.804 104.374 265.806C104.374 265.808 104.374 265.81 104.374 265.813C104.374 265.815 104.374 265.817 104.374 265.819C104.374 265.822 104.374 265.824 104.374 265.826C104.374 265.828 104.374 265.831 104.375 265.833C104.375 265.835 104.375 265.837 104.375 265.84C104.375 265.842 104.375 265.844 104.375 265.846C104.375 265.849 104.375 265.851 104.375 265.853C104.375 265.855 104.375 265.858 104.375 265.86C104.375 265.862 104.375 265.864 104.375 265.866C104.375 265.869 104.375 265.871 104.376 265.873C104.376 265.875 104.376 265.878 104.376 265.88C104.376 265.882 104.376 265.884 104.376 265.887C104.376 265.889 104.376 265.891 104.376 265.893C104.376 265.895 104.376 265.898 104.376 265.9C104.376 265.902 104.376 265.904 104.376 265.907C104.376 265.909 104.376 265.911 104.377 265.913C104.377 265.915 104.377 265.918 104.377 265.92C104.377 265.922 104.377 265.924 104.377 265.927C104.377 265.929 104.377 265.931 104.377 265.933C104.377 265.935 104.377 265.938 104.377 265.94C104.377 265.942 104.377 265.944 104.377 265.947C104.377 265.949 104.377 265.951 104.378 265.953C104.378 265.955 104.378 265.958 104.378 265.96C104.378 265.962 104.378 265.964 104.378 265.966C104.378 265.969 104.378 265.971 104.378 265.973C104.378 265.975 104.378 265.978 104.378 265.98C104.378 265.982 104.378 265.984 104.378 265.986C104.378 265.989 104.378 265.991 104.379 265.993C104.379 265.995 104.379 265.997 104.379 266C104.379 266.002 104.379 266.004 104.379 266.006C104.379 266.008 104.379 266.011 104.379 266.013C104.379 266.015 104.379 266.017 104.379 266.019C104.379 266.022 104.379 266.024 104.379 266.026C104.379 266.028 104.379 266.03 104.38 266.033C104.38 266.035 104.38 266.037 104.38 266.039C104.38 266.041 104.38 266.044 104.38 266.046C104.38 266.048 104.38 266.05 104.38 266.052C104.38 266.055 104.38 266.057 104.38 266.059C104.38 266.061 104.38 266.063 104.38 266.066C104.38 266.068 104.38 266.07 104.38 266.072C104.381 266.074 104.381 266.077 104.381 266.079C104.381 266.081 104.381 266.083 104.381 266.085C104.381 266.088 104.381 266.09 104.381 266.092C104.381 266.094 104.381 266.096 104.381 266.099C104.381 266.101 104.381 266.103 104.381 266.105C104.381 266.107 104.381 266.109 104.381 266.112C104.382 266.114 104.382 266.116 104.382 266.118C104.382 266.12 104.382 266.123 104.382 266.125C104.382 266.127 104.382 266.129 104.382 266.131C104.382 266.134 104.382 266.136 104.382 266.138C104.382 266.14 104.382 266.142 104.382 266.144C104.382 266.147 104.382 266.149 104.382 266.151C104.383 266.153 104.383 266.155 104.383 266.158C104.383 266.16 104.383 266.162 104.383 266.164C104.383 266.166 104.383 266.169 104.383 266.171C104.383 266.173 104.383 266.175 104.383 266.177C104.383 266.179 104.383 266.182 104.383 266.184C104.383 266.186 104.383 266.188 104.383 266.19C104.384 266.193 104.384 266.195 104.384 266.197C104.384 266.199 104.384 266.201 104.384 266.203C104.384 266.206 104.384 266.208 104.384 266.21C104.384 266.212 104.384 266.214 104.384 266.217C104.384 266.219 104.384 266.221 104.384 266.223C104.384 266.225 104.384 266.227 104.384 266.23C104.384 266.232 104.385 266.234 104.385 266.236C104.385 266.238 104.385 266.24 104.385 266.243C104.385 266.245 104.385 266.247 104.385 266.249C104.385 266.251 104.385 266.254 104.385 266.256C104.385 266.258 104.385 266.26 104.385 266.262C104.385 266.264 104.385 266.267 104.385 266.269C104.385 266.271 104.386 266.273 104.386 266.275C104.386 266.277 104.386 266.28 104.386 266.282C104.386 266.284 104.386 266.286 104.386 266.288C104.386 266.29 104.386 266.293 104.386 266.295C104.386 266.297 104.386 266.299 104.386 266.301C104.386 266.304 104.386 266.306 104.386 266.308C104.386 266.31 104.386 266.312 104.387 266.314C104.387 266.317 104.387 266.319 104.387 266.321C104.387 266.323 104.387 266.325 104.387 266.327C104.387 266.33 104.387 266.332 104.387 266.334C104.387 266.336 104.387 266.338 104.387 266.34C104.387 266.343 104.387 266.345 104.387 266.347C104.387 266.349 104.387 266.351 104.388 266.354C104.388 266.356 104.388 266.358 104.388 266.36C104.388 266.362 104.388 266.364 104.388 266.367C104.388 266.369 104.388 266.371 104.388 266.373C104.388 266.375 104.388 266.377 104.388 266.38C104.388 266.382 104.388 266.384 104.388 266.386C104.388 266.388 104.388 266.39 104.389 266.393C104.389 266.395 104.389 266.397 104.389 266.399C104.389 266.401 104.389 266.403 104.389 266.406C104.389 266.408 104.389 266.41 104.389 266.412C104.389 266.414 104.389 266.416 104.389 266.419C104.389 266.421 104.389 266.423 104.389 266.425C104.389 266.427 104.389 266.43 104.389 266.432C104.39 266.434 104.39 266.436 104.39 266.438C104.39 266.44 104.39 266.443 104.39 266.445C104.39 266.447 104.39 266.449 104.39 266.451C104.39 266.453 104.39 266.456 104.39 266.458C104.39 266.46 104.39 266.462 104.39 266.464C104.39 266.466 104.39 266.469 104.39 266.471C104.391 266.473 104.391 266.475 104.391 266.477C104.391 266.479 104.391 266.482 104.391 266.484C104.391 266.486 104.391 266.488 104.391 266.49C104.391 266.493 104.391 266.495 104.391 266.497C104.391 266.499 104.391 266.501 104.391 266.503C104.391 266.506 104.391 266.508 104.391 266.51C104.391 266.512 104.392 266.514 104.392 266.516C104.392 266.519 104.392 266.521 104.392 266.523C104.392 266.525 104.392 266.527 104.392 266.529C104.392 266.532 104.392 266.534 104.392 266.536C104.392 266.538 104.392 266.54 104.392 266.543C104.392 266.545 104.392 266.547 104.392 266.549C104.392 266.551 104.393 266.553 104.393 266.556C104.393 266.558 104.393 266.56 104.393 266.562C104.393 266.564 104.393 266.566 104.393 266.569C104.393 266.571 104.393 266.573 104.393 266.575C104.393 266.577 104.393 266.58 104.393 266.582C104.393 266.584 104.393 266.586 104.393 266.588C104.393 266.59 104.394 266.593 104.394 266.595C104.394 266.597 104.394 266.599 104.394 266.601C104.394 266.604 104.394 266.606 104.394 266.608C104.394 266.61 104.394 266.612 104.394 266.614C104.394 266.617 104.394 266.619 104.394 266.621C104.394 266.623 104.394 266.625 104.394 266.628C104.394 266.63 104.394 266.632 104.395 266.634C104.395 266.636 104.395 266.638 104.395 266.641C104.395 266.643 104.395 266.645 104.395 266.647C104.395 266.649 104.395 266.652 104.395 266.654C104.395 266.656 104.395 266.658 104.395 266.66C104.395 266.662 104.395 266.665 104.395 266.667C104.395 266.669 104.395 266.671 104.396 266.673C104.396 266.676 104.396 266.678 104.396 266.68C104.396 266.682 104.396 266.684 104.396 266.687C104.396 266.689 104.396 266.691 104.396 266.693C104.396 266.695 104.396 266.698 104.396 266.7C104.396 266.702 104.396 266.704 104.396 266.706C104.396 266.708 104.396 266.711 104.397 266.713C104.397 266.715 104.397 266.717 104.397 266.719C104.397 266.722 104.397 266.724 104.397 266.726C104.397 266.728 104.397 266.73 104.397 266.733C104.397 266.735 104.397 266.737 104.397 266.739C104.397 266.741 104.397 266.744 104.397 266.746C104.397 266.748 104.397 266.75 104.397 266.752C104.398 266.755 104.398 266.757 104.398 266.759C104.398 266.761 104.398 266.763 104.398 266.766C104.398 266.768 104.398 266.77 104.398 266.772C104.398 266.774 104.398 266.777 104.398 266.779C104.398 266.781 104.398 266.783 104.398 266.785C104.398 266.788 104.398 266.79 104.398 266.792C104.399 266.794 104.399 266.796 104.399 266.799C104.399 266.801 104.399 266.803 104.399 266.805C104.399 266.807 104.399 266.81 104.399 266.812C104.399 266.814 104.399 266.816 104.399 266.818C104.399 266.821 104.399 266.823 104.399 266.825C104.399 266.827 104.399 266.83 104.399 266.832C104.4 266.834 104.4 266.836 104.4 266.838C104.4 266.841 104.4 266.843 104.4 266.845C104.4 266.847 104.4 266.849 104.4 266.852C104.4 266.854 104.4 266.856 104.4 266.858C104.4 266.861 104.4 266.863 104.4 266.865C104.4 266.867 104.4 266.869 104.4 266.872C104.401 266.874 104.401 266.876 104.401 266.878C104.401 266.881 104.401 266.883 104.401 266.885C104.401 266.887 104.401 266.889 104.401 266.892C104.401 266.894 104.401 266.896 104.401 266.898C104.401 266.901 104.401 266.903 104.401 266.905C104.401 266.907 104.401 266.909 104.401 266.912C104.402 266.914 104.402 266.916 104.402 266.918C104.402 266.921 104.402 266.923 104.402 266.925C104.402 266.927 104.402 266.93 104.402 266.932C104.402 266.934 104.402 266.936 104.402 266.938C104.402 266.941 104.402 266.943 104.402 266.945C104.402 266.947 104.402 266.95 104.402 266.952C104.403 266.954 104.403 266.956 104.403 266.959C104.403 266.961 104.403 266.963 104.403 266.965C104.403 266.968 104.403 266.97 104.403 266.972C104.403 266.974 104.403 266.977 104.403 266.979C104.403 266.981 104.403 266.983 104.403 266.985C104.403 266.988 104.403 266.99 104.403 266.992C104.404 266.994 104.404 266.997 104.404 266.999C104.404 267.001 104.404 267.003 104.404 267.006C104.404 267.008 104.404 267.01 104.404 267.012C104.404 267.015 104.404 267.017 104.404 267.019C104.404 267.021 104.404 267.024 104.404 267.026C104.404 267.028 104.404 267.031 104.405 267.033C104.405 267.035 104.405 267.037 104.405 267.04C104.405 267.042 104.405 267.044 104.405 267.046C104.405 267.049 104.405 267.051 104.405 267.053C104.405 267.055 104.405 267.058 104.405 267.06C104.405 267.062 104.405 267.064 104.405 267.067C104.405 267.069 104.405 267.071 104.406 267.074C104.406 267.076 104.406 267.078 104.406 267.08C104.406 267.083 104.406 267.085 104.406 267.087C104.406 267.089 104.406 267.092 104.406 267.094C104.406 267.096 104.406 267.098 104.406 267.101C104.406 267.103 104.406 267.105 104.406 267.108C104.406 267.11 104.406 267.112 104.407 267.114C104.407 267.117 104.407 267.119 104.407 267.121C104.407 267.124 104.407 267.126 104.407 267.128C104.407 267.13 104.407 267.133 104.407 267.135C104.407 267.137 104.407 267.14 104.407 267.142C104.407 267.144 104.407 267.146 104.407 267.149C104.407 267.151 104.408 267.153 104.408 267.156C104.408 267.158 104.408 267.16 104.408 267.162C104.408 267.165 104.408 267.167 104.408 267.169C104.408 267.172 104.408 267.174 104.408 267.176C104.408 267.179 104.408 267.181 104.408 267.183C104.408 267.185 104.408 267.188 104.408 267.19C104.408 267.192 104.409 267.195 104.409 267.197C104.409 267.199 104.409 267.202 104.409 267.204C104.409 267.206 104.409 267.209 104.409 267.211C104.409 267.213 104.409 267.215 104.409 267.218C104.409 267.22 104.409 267.222 104.409 267.225C104.409 267.227 104.409 267.229 104.409 267.232C104.41 267.234 104.41 267.236 104.41 267.239C104.41 267.241 104.41 267.243 104.41 267.246C104.41 267.248 104.41 267.25 104.41 267.253C104.41 267.255 104.41 267.257 104.41 267.26C104.41 267.262 104.41 267.264 104.41 267.267C104.41 267.269 104.41 267.271 104.411 267.273C104.411 267.276 104.411 267.278 104.411 267.28C104.411 267.283 104.411 267.285 104.411 267.288C104.411 267.29 104.411 267.292 104.411 267.295C104.411 267.297 104.411 267.299 104.411 267.302C104.411 267.304 104.411 267.306 104.411 267.309C104.411 267.311 104.412 267.313 104.412 267.316C104.412 267.318 104.412 267.32 104.412 267.323C104.412 267.325 104.412 267.327 104.412 267.33C104.412 267.332 104.412 267.334 104.412 267.337C104.412 267.339 104.412 267.341 104.412 267.344C104.412 267.346 104.412 267.349 104.412 267.351C104.413 267.353 104.413 267.356 104.413 267.358C104.413 267.36 104.413 267.363 104.413 267.365C104.413 267.367 104.413 267.37 104.413 267.372C104.413 267.375 104.413 267.377 104.413 267.379C104.413 267.382 104.413 267.384 104.413 267.386C104.413 267.389 104.413 267.391 104.414 267.394C104.414 267.396 104.414 267.398 104.414 267.401C104.414 267.403 104.414 267.405 104.414 267.408C104.414 267.41 104.414 267.413 104.414 267.415C104.414 267.417 104.414 267.42 104.414 267.422C104.414 267.424 104.414 267.427 104.414 267.429C104.414 267.432 104.415 267.434 104.415 267.436C104.415 267.439 104.415 267.441 104.415 267.444C104.415 267.446 104.415 267.448 104.415 267.451C104.415 267.453 104.415 267.456 104.415 267.458C104.415 267.46 104.415 267.463 104.415 267.465C104.415 267.468 104.415 267.47 104.415 267.472C104.416 267.475 104.416 267.477 104.416 267.48C104.416 267.482 104.416 267.484 104.416 267.487C104.416 267.489 104.416 267.492 104.416 267.494C104.416 267.497 104.416 267.499 104.416 267.501C104.416 267.504 104.416 267.506 104.416 267.509C104.416 267.511 104.417 267.513 104.417 267.516C104.417 267.518 104.417 267.521 104.417 267.523C104.417 267.526 104.417 267.528 104.417 267.53C104.417 267.533 104.417 267.535 104.417 267.538C104.417 267.54 104.417 267.543 104.417 267.545C104.417 267.548 104.417 267.55 104.417 267.552C104.418 267.555 104.418 267.557 104.418 267.56C104.418 267.562 104.418 267.565 104.418 267.567C104.418 267.57 104.418 267.572 104.418 267.574C104.418 267.577 104.418 267.579 104.418 267.582C104.418 267.584 104.418 267.587 104.418 267.589C104.418 267.592 104.419 267.594 104.419 267.597C104.419 267.599 104.419 267.601 104.419 267.604C104.419 267.606 104.419 267.609 104.419 267.611C104.419 267.614 104.419 267.616 104.419 267.619C104.419 267.621 104.419 267.624 104.419 267.626C104.419 267.629 104.419 267.631 104.42 267.634C104.42 267.636 104.42 267.639 104.42 267.641C104.42 267.643 104.42 267.646 104.42 267.648C104.42 267.651 104.42 267.653 104.42 267.656C104.42 267.658 104.42 267.661 104.42 267.663C104.42 267.666 104.42 267.668 104.42 267.671C104.421 267.673 104.421 267.676 104.421 267.678C104.421 267.681 104.421 267.683 104.421 267.686C104.421 267.688 104.421 267.691 104.421 267.693C104.421 267.696 104.421 267.698 104.421 267.701C104.421 267.703 104.421 267.706 104.421 267.708C104.421 267.711 104.422 267.713 104.422 267.716C104.422 267.718 104.422 267.721 104.422 267.723C104.422 267.726 104.422 267.729 104.422 267.731C104.422 267.734 104.422 267.736 104.422 267.739C104.422 267.741 104.422 267.744 104.422 267.746C104.422 267.749 104.422 267.751 104.423 267.754C104.423 267.756 104.423 267.759 104.423 267.761C104.423 267.764 104.423 267.766 104.423 267.769C104.423 267.772 104.423 267.774 104.423 267.777C104.423 267.779 104.423 267.782 104.423 267.784C104.423 267.787 104.423 267.789 104.423 267.792C104.424 267.794 104.424 267.797 104.424 267.8C104.424 267.802 104.424 267.805 104.424 267.807C104.424 267.81 104.424 267.812 104.424 267.815C104.424 267.818 104.424 267.82 104.424 267.823C104.424 267.825 104.424 267.828 104.424 267.83C104.425 267.833 104.425 267.836 104.425 267.838C104.425 267.841 104.425 267.843 104.425 267.846C104.425 267.848 104.425 267.851 104.425 267.854C104.425 267.856 104.425 267.859 104.425 267.861C104.425 267.864 104.425 267.866 104.425 267.869C104.425 267.872 104.426 267.874 104.426 267.877C104.426 267.879 104.426 267.882 104.426 267.885C104.426 267.887 104.426 267.89 104.426 267.892C104.426 267.895 104.426 267.898 104.426 267.9C104.426 267.903 104.426 267.905 104.426 267.908C104.426 267.911 104.427 267.913 104.427 267.916C104.427 267.919 104.427 267.921 104.427 267.924C104.427 267.926 104.427 267.929 104.427 267.932C104.427 267.934 104.427 267.937 104.427 267.94C104.427 267.942 104.427 267.945 104.427 267.947C104.427 267.95 104.427 267.953 104.428 267.955C104.428 267.958 104.428 267.961 104.428 267.963C104.428 267.966 104.428 267.969 104.428 267.971C104.428 267.974 104.428 267.976 104.428 267.979C104.428 267.982 104.428 267.984 104.428 267.987C104.428 267.99 104.428 267.992 104.429 267.995C104.429 267.998 104.429 268 104.429 268.003C104.429 268.006 104.429 268.008 104.429 268.011C104.429 268.014 104.429 268.016 104.429 268.019C104.429 268.022 104.429 268.024 104.429 268.027C104.429 268.03 104.429 268.032 104.43 268.035C104.43 268.038 104.43 268.04 104.43 268.043C104.43 268.046 104.43 268.048 104.43 268.051C104.43 268.054 104.43 268.056 104.43 268.059C104.43 268.062 104.43 268.065 104.43 268.067C104.43 268.07 104.43 268.073 104.431 268.075C104.431 268.078 104.431 268.081 104.431 268.083C104.431 268.086 104.431 268.089 104.431 268.092C104.431 268.094 104.431 268.097 104.431 268.1C104.431 268.102 104.431 268.105 104.431 268.108C104.431 268.111 104.432 268.113 104.432 268.116C104.432 268.119 104.432 268.121 104.432 268.124C104.432 268.127 104.432 268.13 104.432 268.132C104.432 268.135 104.432 268.138 104.432 268.141C104.432 268.143 104.432 268.146 104.432 268.149C104.432 268.152 104.433 268.154 104.433 268.157C104.433 268.16 104.433 268.163 104.433 268.165C104.433 268.168 104.433 268.171 104.433 268.174C104.433 268.176 104.433 268.179 104.433 268.182C104.433 268.185 104.433 268.187 104.433 268.19C104.434 268.193 104.434 268.196 104.434 268.198C104.434 268.201 104.434 268.204 104.434 268.207C104.434 268.209 104.434 268.212 104.434 268.215C104.434 268.218 104.434 268.221 104.434 268.223L106.173 268.18C106.173 268.177 106.173 268.174 106.173 268.172C106.173 268.169 106.173 268.166 106.173 268.163C106.173 268.16 106.173 268.158 106.173 268.155C106.173 268.152 106.173 268.149 106.173 268.147C106.172 268.144 106.172 268.141 106.172 268.138C106.172 268.136 106.172 268.133 106.172 268.13C106.172 268.127 106.172 268.125 106.172 268.122C106.172 268.119 106.172 268.116 106.172 268.114C106.172 268.111 106.172 268.108 106.172 268.105C106.171 268.103 106.171 268.1 106.171 268.097C106.171 268.094 106.171 268.092 106.171 268.089C106.171 268.086 106.171 268.083 106.171 268.081C106.171 268.078 106.171 268.075 106.171 268.073C106.171 268.07 106.171 268.067 106.17 268.064C106.17 268.062 106.17 268.059 106.17 268.056C106.17 268.054 106.17 268.051 106.17 268.048C106.17 268.045 106.17 268.043 106.17 268.04C106.17 268.037 106.17 268.035 106.17 268.032C106.17 268.029 106.17 268.026 106.169 268.024C106.169 268.021 106.169 268.018 106.169 268.016C106.169 268.013 106.169 268.01 106.169 268.008C106.169 268.005 106.169 268.002 106.169 268C106.169 267.997 106.169 267.994 106.169 267.992C106.169 267.989 106.169 267.986 106.168 267.984C106.168 267.981 106.168 267.978 106.168 267.975C106.168 267.973 106.168 267.97 106.168 267.967C106.168 267.965 106.168 267.962 106.168 267.96C106.168 267.957 106.168 267.954 106.168 267.952C106.168 267.949 106.168 267.946 106.167 267.944C106.167 267.941 106.167 267.938 106.167 267.936C106.167 267.933 106.167 267.93 106.167 267.928C106.167 267.925 106.167 267.922 106.167 267.92C106.167 267.917 106.167 267.914 106.167 267.912C106.167 267.909 106.167 267.907 106.166 267.904C106.166 267.901 106.166 267.899 106.166 267.896C106.166 267.893 106.166 267.891 106.166 267.888C106.166 267.886 106.166 267.883 106.166 267.88C106.166 267.878 106.166 267.875 106.166 267.872C106.166 267.87 106.166 267.867 106.165 267.865C106.165 267.862 106.165 267.859 106.165 267.857C106.165 267.854 106.165 267.852 106.165 267.849C106.165 267.846 106.165 267.844 106.165 267.841C106.165 267.839 106.165 267.836 106.165 267.833C106.165 267.831 106.165 267.828 106.165 267.826C106.164 267.823 106.164 267.82 106.164 267.818C106.164 267.815 106.164 267.813 106.164 267.81C106.164 267.808 106.164 267.805 106.164 267.802C106.164 267.8 106.164 267.797 106.164 267.795C106.164 267.792 106.164 267.789 106.164 267.787C106.163 267.784 106.163 267.782 106.163 267.779C106.163 267.777 106.163 267.774 106.163 267.772C106.163 267.769 106.163 267.766 106.163 267.764C106.163 267.761 106.163 267.759 106.163 267.756C106.163 267.754 106.163 267.751 106.163 267.748C106.163 267.746 106.162 267.743 106.162 267.741C106.162 267.738 106.162 267.736 106.162 267.733C106.162 267.731 106.162 267.728 106.162 267.726C106.162 267.723 106.162 267.72 106.162 267.718C106.162 267.715 106.162 267.713 106.162 267.71C106.162 267.708 106.162 267.705 106.161 267.703C106.161 267.7 106.161 267.698 106.161 267.695C106.161 267.693 106.161 267.69 106.161 267.688C106.161 267.685 106.161 267.683 106.161 267.68C106.161 267.678 106.161 267.675 106.161 267.672C106.161 267.67 106.161 267.667 106.16 267.665C106.16 267.662 106.16 267.66 106.16 267.657C106.16 267.655 106.16 267.652 106.16 267.65C106.16 267.647 106.16 267.645 106.16 267.642C106.16 267.64 106.16 267.637 106.16 267.635C106.16 267.632 106.16 267.63 106.16 267.627C106.159 267.625 106.159 267.622 106.159 267.62C106.159 267.617 106.159 267.615 106.159 267.612C106.159 267.61 106.159 267.607 106.159 267.605C106.159 267.603 106.159 267.6 106.159 267.598C106.159 267.595 106.159 267.593 106.159 267.59C106.159 267.588 106.159 267.585 106.158 267.583C106.158 267.58 106.158 267.578 106.158 267.575C106.158 267.573 106.158 267.57 106.158 267.568C106.158 267.565 106.158 267.563 106.158 267.56C106.158 267.558 106.158 267.556 106.158 267.553C106.158 267.551 106.158 267.548 106.158 267.546C106.157 267.543 106.157 267.541 106.157 267.538C106.157 267.536 106.157 267.533 106.157 267.531C106.157 267.529 106.157 267.526 106.157 267.524C106.157 267.521 106.157 267.519 106.157 267.516C106.157 267.514 106.157 267.511 106.157 267.509C106.157 267.507 106.156 267.504 106.156 267.502C106.156 267.499 106.156 267.497 106.156 267.494C106.156 267.492 106.156 267.489 106.156 267.487C106.156 267.485 106.156 267.482 106.156 267.48C106.156 267.477 106.156 267.475 106.156 267.472C106.156 267.47 106.156 267.468 106.156 267.465C106.155 267.463 106.155 267.46 106.155 267.458C106.155 267.456 106.155 267.453 106.155 267.451C106.155 267.448 106.155 267.446 106.155 267.443C106.155 267.441 106.155 267.439 106.155 267.436C106.155 267.434 106.155 267.431 106.155 267.429C106.155 267.427 106.154 267.424 106.154 267.422C106.154 267.419 106.154 267.417 106.154 267.415C106.154 267.412 106.154 267.41 106.154 267.407C106.154 267.405 106.154 267.403 106.154 267.4C106.154 267.398 106.154 267.395 106.154 267.393C106.154 267.391 106.154 267.388 106.154 267.386C106.153 267.383 106.153 267.381 106.153 267.379C106.153 267.376 106.153 267.374 106.153 267.371C106.153 267.369 106.153 267.367 106.153 267.364C106.153 267.362 106.153 267.36 106.153 267.357C106.153 267.355 106.153 267.352 106.153 267.35C106.153 267.348 106.153 267.345 106.152 267.343C106.152 267.341 106.152 267.338 106.152 267.336C106.152 267.333 106.152 267.331 106.152 267.329C106.152 267.326 106.152 267.324 106.152 267.322C106.152 267.319 106.152 267.317 106.152 267.315C106.152 267.312 106.152 267.31 106.152 267.307C106.151 267.305 106.151 267.303 106.151 267.3C106.151 267.298 106.151 267.296 106.151 267.293C106.151 267.291 106.151 267.289 106.151 267.286C106.151 267.284 106.151 267.282 106.151 267.279C106.151 267.277 106.151 267.274 106.151 267.272C106.151 267.27 106.151 267.267 106.151 267.265C106.15 267.263 106.15 267.26 106.15 267.258C106.15 267.256 106.15 267.253 106.15 267.251C106.15 267.249 106.15 267.246 106.15 267.244C106.15 267.242 106.15 267.239 106.15 267.237C106.15 267.235 106.15 267.232 106.15 267.23C106.15 267.228 106.15 267.225 106.149 267.223C106.149 267.221 106.149 267.218 106.149 267.216C106.149 267.214 106.149 267.211 106.149 267.209C106.149 267.207 106.149 267.204 106.149 267.202C106.149 267.2 106.149 267.197 106.149 267.195C106.149 267.193 106.149 267.191 106.149 267.188C106.149 267.186 106.148 267.184 106.148 267.181C106.148 267.179 106.148 267.177 106.148 267.174C106.148 267.172 106.148 267.17 106.148 267.167C106.148 267.165 106.148 267.163 106.148 267.16C106.148 267.158 106.148 267.156 106.148 267.154C106.148 267.151 106.148 267.149 106.148 267.147C106.147 267.144 106.147 267.142 106.147 267.14C106.147 267.137 106.147 267.135 106.147 267.133C106.147 267.13 106.147 267.128 106.147 267.126C106.147 267.124 106.147 267.121 106.147 267.119C106.147 267.117 106.147 267.114 106.147 267.112C106.147 267.11 106.147 267.108 106.147 267.105C106.146 267.103 106.146 267.101 106.146 267.098C106.146 267.096 106.146 267.094 106.146 267.092C106.146 267.089 106.146 267.087 106.146 267.085C106.146 267.082 106.146 267.08 106.146 267.078C106.146 267.076 106.146 267.073 106.146 267.071C106.146 267.069 106.146 267.066 106.145 267.064C106.145 267.062 106.145 267.06 106.145 267.057C106.145 267.055 106.145 267.053 106.145 267.05C106.145 267.048 106.145 267.046 106.145 267.044C106.145 267.041 106.145 267.039 106.145 267.037C106.145 267.035 106.145 267.032 106.145 267.03C106.145 267.028 106.145 267.025 106.144 267.023C106.144 267.021 106.144 267.019 106.144 267.016C106.144 267.014 106.144 267.012 106.144 267.01C106.144 267.007 106.144 267.005 106.144 267.003C106.144 267.001 106.144 266.998 106.144 266.996C106.144 266.994 106.144 266.992 106.144 266.989C106.144 266.987 106.143 266.985 106.143 266.983C106.143 266.98 106.143 266.978 106.143 266.976C106.143 266.974 106.143 266.971 106.143 266.969C106.143 266.967 106.143 266.965 106.143 266.962C106.143 266.96 106.143 266.958 106.143 266.956C106.143 266.953 106.143 266.951 106.143 266.949C106.143 266.947 106.142 266.944 106.142 266.942C106.142 266.94 106.142 266.938 106.142 266.935C106.142 266.933 106.142 266.931 106.142 266.929C106.142 266.926 106.142 266.924 106.142 266.922C106.142 266.92 106.142 266.917 106.142 266.915C106.142 266.913 106.142 266.911 106.142 266.908C106.142 266.906 106.141 266.904 106.141 266.902C106.141 266.899 106.141 266.897 106.141 266.895C106.141 266.893 106.141 266.891 106.141 266.888C106.141 266.886 106.141 266.884 106.141 266.882C106.141 266.879 106.141 266.877 106.141 266.875C106.141 266.873 106.141 266.87 106.141 266.868C106.141 266.866 106.14 266.864 106.14 266.862C106.14 266.859 106.14 266.857 106.14 266.855C106.14 266.853 106.14 266.85 106.14 266.848C106.14 266.846 106.14 266.844 106.14 266.842C106.14 266.839 106.14 266.837 106.14 266.835C106.14 266.833 106.14 266.83 106.14 266.828C106.14 266.826 106.139 266.824 106.139 266.822C106.139 266.819 106.139 266.817 106.139 266.815C106.139 266.813 106.139 266.81 106.139 266.808C106.139 266.806 106.139 266.804 106.139 266.802C106.139 266.799 106.139 266.797 106.139 266.795C106.139 266.793 106.139 266.791 106.139 266.788C106.139 266.786 106.138 266.784 106.138 266.782C106.138 266.779 106.138 266.777 106.138 266.775C106.138 266.773 106.138 266.771 106.138 266.768C106.138 266.766 106.138 266.764 106.138 266.762C106.138 266.76 106.138 266.757 106.138 266.755C106.138 266.753 106.138 266.751 106.138 266.749C106.138 266.746 106.137 266.744 106.137 266.742C106.137 266.74 106.137 266.738 106.137 266.735C106.137 266.733 106.137 266.731 106.137 266.729C106.137 266.727 106.137 266.724 106.137 266.722C106.137 266.72 106.137 266.718 106.137 266.716C106.137 266.713 106.137 266.711 106.137 266.709C106.137 266.707 106.136 266.705 106.136 266.702C106.136 266.7 106.136 266.698 106.136 266.696C106.136 266.694 106.136 266.691 106.136 266.689C106.136 266.687 106.136 266.685 106.136 266.683C106.136 266.68 106.136 266.678 106.136 266.676C106.136 266.674 106.136 266.672 106.136 266.669C106.136 266.667 106.136 266.665 106.135 266.663C106.135 266.661 106.135 266.658 106.135 266.656C106.135 266.654 106.135 266.652 106.135 266.65C106.135 266.647 106.135 266.645 106.135 266.643C106.135 266.641 106.135 266.639 106.135 266.637C106.135 266.634 106.135 266.632 106.135 266.63C106.135 266.628 106.135 266.626 106.134 266.623C106.134 266.621 106.134 266.619 106.134 266.617C106.134 266.615 106.134 266.612 106.134 266.61C106.134 266.608 106.134 266.606 106.134 266.604C106.134 266.602 106.134 266.599 106.134 266.597C106.134 266.595 106.134 266.593 106.134 266.591C106.134 266.588 106.134 266.586 106.133 266.584C106.133 266.582 106.133 266.58 106.133 266.578C106.133 266.575 106.133 266.573 106.133 266.571C106.133 266.569 106.133 266.567 106.133 266.564C106.133 266.562 106.133 266.56 106.133 266.558C106.133 266.556 106.133 266.554 106.133 266.551C106.133 266.549 106.133 266.547 106.132 266.545C106.132 266.543 106.132 266.54 106.132 266.538C106.132 266.536 106.132 266.534 106.132 266.532C106.132 266.53 106.132 266.527 106.132 266.525C106.132 266.523 106.132 266.521 106.132 266.519C106.132 266.516 106.132 266.514 106.132 266.512C106.132 266.51 106.132 266.508 106.132 266.506C106.131 266.503 106.131 266.501 106.131 266.499C106.131 266.497 106.131 266.495 106.131 266.493C106.131 266.49 106.131 266.488 106.131 266.486C106.131 266.484 106.131 266.482 106.131 266.479C106.131 266.477 106.131 266.475 106.131 266.473C106.131 266.471 106.131 266.469 106.131 266.466C106.13 266.464 106.13 266.462 106.13 266.46C106.13 266.458 106.13 266.456 106.13 266.453C106.13 266.451 106.13 266.449 106.13 266.447C106.13 266.445 106.13 266.443 106.13 266.44C106.13 266.438 106.13 266.436 106.13 266.434C106.13 266.432 106.13 266.429 106.13 266.427C106.13 266.425 106.129 266.423 106.129 266.421C106.129 266.419 106.129 266.416 106.129 266.414C106.129 266.412 106.129 266.41 106.129 266.408C106.129 266.406 106.129 266.403 106.129 266.401C106.129 266.399 106.129 266.397 106.129 266.395C106.129 266.393 106.129 266.39 106.129 266.388C106.129 266.386 106.128 266.384 106.128 266.382C106.128 266.38 106.128 266.377 106.128 266.375C106.128 266.373 106.128 266.371 106.128 266.369C106.128 266.367 106.128 266.364 106.128 266.362C106.128 266.36 106.128 266.358 106.128 266.356C106.128 266.353 106.128 266.351 106.128 266.349C106.128 266.347 106.127 266.345 106.127 266.343C106.127 266.34 106.127 266.338 106.127 266.336C106.127 266.334 106.127 266.332 106.127 266.33C106.127 266.327 106.127 266.325 106.127 266.323C106.127 266.321 106.127 266.319 106.127 266.317C106.127 266.314 106.127 266.312 106.127 266.31C106.127 266.308 106.127 266.306 106.126 266.304C106.126 266.301 106.126 266.299 106.126 266.297C106.126 266.295 106.126 266.293 106.126 266.29C106.126 266.288 106.126 266.286 106.126 266.284C106.126 266.282 106.126 266.28 106.126 266.277C106.126 266.275 106.126 266.273 106.126 266.271C106.126 266.269 106.126 266.267 106.125 266.264C106.125 266.262 106.125 266.26 106.125 266.258C106.125 266.256 106.125 266.254 106.125 266.251C106.125 266.249 106.125 266.247 106.125 266.245C106.125 266.243 106.125 266.241 106.125 266.238C106.125 266.236 106.125 266.234 106.125 266.232C106.125 266.23 106.125 266.227 106.125 266.225C106.124 266.223 106.124 266.221 106.124 266.219C106.124 266.217 106.124 266.214 106.124 266.212C106.124 266.21 106.124 266.208 106.124 266.206C106.124 266.204 106.124 266.201 106.124 266.199C106.124 266.197 106.124 266.195 106.124 266.193C106.124 266.19 106.124 266.188 106.124 266.186C106.123 266.184 106.123 266.182 106.123 266.18C106.123 266.177 106.123 266.175 106.123 266.173C106.123 266.171 106.123 266.169 106.123 266.166C106.123 266.164 106.123 266.162 106.123 266.16C106.123 266.158 106.123 266.156 106.123 266.153C106.123 266.151 106.123 266.149 106.123 266.147C106.122 266.145 106.122 266.143 106.122 266.14C106.122 266.138 106.122 266.136 106.122 266.134C106.122 266.132 106.122 266.129 106.122 266.127C106.122 266.125 106.122 266.123 106.122 266.121C106.122 266.119 106.122 266.116 106.122 266.114C106.122 266.112 106.122 266.11 106.122 266.108C106.122 266.105 106.121 266.103 106.121 266.101C106.121 266.099 106.121 266.097 106.121 266.094C106.121 266.092 106.121 266.09 106.121 266.088C106.121 266.086 106.121 266.084 106.121 266.081C106.121 266.079 106.121 266.077 106.121 266.075C106.121 266.073 106.121 266.07 106.121 266.068C106.121 266.066 106.12 266.064 106.12 266.062C106.12 266.059 106.12 266.057 106.12 266.055C106.12 266.053 106.12 266.051 106.12 266.048C106.12 266.046 106.12 266.044 106.12 266.042C106.12 266.04 106.12 266.038 106.12 266.035C106.12 266.033 106.12 266.031 106.12 266.029C106.12 266.027 106.119 266.024 106.119 266.022C106.119 266.02 106.119 266.018 106.119 266.016C106.119 266.013 106.119 266.011 106.119 266.009C106.119 266.007 106.119 266.005 106.119 266.002C106.119 266 106.119 265.998 106.119 265.996C106.119 265.994 106.119 265.991 106.119 265.989C106.119 265.987 106.119 265.985 106.118 265.983C106.118 265.98 106.118 265.978 106.118 265.976C106.118 265.974 106.118 265.972 106.118 265.969C106.118 265.967 106.118 265.965 106.118 265.963C106.118 265.961 106.118 265.958 106.118 265.956C106.118 265.954 106.118 265.952 106.118 265.95C106.118 265.947 106.118 265.945 106.117 265.943C106.117 265.941 106.117 265.938 106.117 265.936C106.117 265.934 106.117 265.932 106.117 265.93C106.117 265.927 106.117 265.925 106.117 265.923C106.117 265.921 106.117 265.919 106.117 265.916C106.117 265.914 106.117 265.912 106.117 265.91C106.117 265.908 106.117 265.905 106.116 265.903C106.116 265.901 106.116 265.899 106.116 265.896C106.116 265.894 106.116 265.892 106.116 265.89C106.116 265.888 106.116 265.885 106.116 265.883C106.116 265.881 106.116 265.879 106.116 265.876C106.116 265.874 106.116 265.872 106.116 265.87C106.116 265.868 106.116 265.865 106.115 265.863C106.115 265.861 106.115 265.859 106.115 265.856C106.115 265.854 106.115 265.852 106.115 265.85C106.115 265.848 106.115 265.845 106.115 265.843C106.115 265.841 106.115 265.839 106.115 265.836C106.115 265.834 106.115 265.832 106.115 265.83C106.115 265.827 106.115 265.825 106.114 265.823C106.114 265.821 106.114 265.819 106.114 265.816C106.114 265.814 106.114 265.812 106.114 265.81C106.114 265.807 106.114 265.805 106.114 265.803C106.114 265.801 106.114 265.798 106.114 265.796C106.114 265.794 106.114 265.792 106.114 265.789C106.114 265.787 106.114 265.785 106.113 265.783C106.113 265.78 106.113 265.778 106.113 265.776C106.113 265.774 106.113 265.772 106.113 265.769C106.113 265.767 106.113 265.765 106.113 265.763C106.113 265.76 106.113 265.758 106.113 265.756C106.113 265.754 106.113 265.751 106.113 265.749C106.113 265.747 106.112 265.745 106.112 265.742C106.112 265.74 106.112 265.738 106.112 265.736C106.112 265.733 106.112 265.731 106.112 265.729C106.112 265.727 106.112 265.724 106.112 265.722C106.112 265.72 106.112 265.717 106.112 265.715C106.112 265.713 106.112 265.711 106.112 265.708C106.112 265.706 106.111 265.704 106.111 265.702C106.111 265.699 106.111 265.697 106.111 265.695C106.111 265.693 106.111 265.69 106.111 265.688C106.111 265.686 106.111 265.684 106.111 265.681C106.111 265.679 106.111 265.677 106.111 265.674C106.111 265.672 106.111 265.67 106.111 265.668C106.111 265.665 106.11 265.663 106.11 265.661C106.11 265.659 106.11 265.656 106.11 265.654C106.11 265.652 106.11 265.649 106.11 265.647C106.11 265.645 106.11 265.643 106.11 265.64C106.11 265.638 106.11 265.636 106.11 265.633C106.11 265.631 106.11 265.629 106.11 265.627C106.109 265.624 106.109 265.622 106.109 265.62C106.109 265.617 106.109 265.615 106.109 265.613C106.109 265.611 106.109 265.608 106.109 265.606C106.109 265.604 106.109 265.601 106.109 265.599C106.109 265.597 106.109 265.595 106.109 265.592C106.109 265.59 106.109 265.588 106.109 265.585C106.108 265.583 106.108 265.581 106.108 265.578C106.108 265.576 106.108 265.574 106.108 265.572C106.108 265.569 106.108 265.567 106.108 265.565C106.108 265.562 106.108 265.56 106.108 265.558C106.108 265.555 106.108 265.553 106.108 265.551C106.108 265.549 106.108 265.546 106.107 265.544C106.107 265.542 106.107 265.539 106.107 265.537C106.107 265.535 106.107 265.532 106.107 265.53C106.107 265.528 106.107 265.525 106.107 265.523C106.107 265.521 106.107 265.518 106.107 265.516C106.107 265.514 106.107 265.512 106.107 265.509C106.107 265.507 106.106 265.505 106.106 265.502C106.106 265.5 106.106 265.498 106.106 265.495C106.106 265.493 106.106 265.491 106.106 265.488C106.106 265.486 106.106 265.484 106.106 265.481C106.106 265.479 106.106 265.477 106.106 265.474C106.106 265.472 106.106 265.47 106.106 265.467C106.106 265.465 106.105 265.463 106.105 265.46C106.105 265.458 106.105 265.456 106.105 265.453C106.105 265.451 106.105 265.449 106.105 265.446C106.105 265.444 106.105 265.442 106.105 265.439C106.105 265.437 106.105 265.434 106.105 265.432C106.105 265.43 106.105 265.427 106.105 265.425C106.104 265.423 106.104 265.42 106.104 265.418C106.104 265.416 106.104 265.413 106.104 265.411C106.104 265.409 106.104 265.406 106.104 265.404C106.104 265.402 106.104 265.399 106.104 265.397C106.104 265.394 106.104 265.392 106.104 265.39C106.104 265.387 106.104 265.385 106.103 265.383C106.103 265.38 106.103 265.378 106.103 265.375C106.103 265.373 106.103 265.371 106.103 265.368C106.103 265.366 106.103 265.364 106.103 265.361C106.103 265.359 106.103 265.356 106.103 265.354C106.103 265.352 106.103 265.349 106.103 265.347C106.102 265.345 106.102 265.342 106.102 265.34C106.102 265.337 106.102 265.335 106.102 265.333C106.102 265.33 106.102 265.328 106.102 265.326C106.102 265.323 106.102 265.321 106.102 265.318C106.102 265.316 106.102 265.314 106.102 265.311C106.102 265.309 106.102 265.306 106.101 265.304C106.101 265.302 106.101 265.299 106.101 265.297C106.101 265.294 106.101 265.292 106.101 265.29C106.101 265.287 106.101 265.285 106.101 265.282C106.101 265.28 106.101 265.278 106.101 265.275C106.101 265.273 106.101 265.27 106.101 265.268C106.101 265.265 106.1 265.263 106.1 265.261C106.1 265.258 106.1 265.256 106.1 265.253C106.1 265.251 106.1 265.249 106.1 265.246C106.1 265.244 106.1 265.241 106.1 265.239C106.1 265.236 106.1 265.234 106.1 265.232C106.1 265.229 106.1 265.227 106.099 265.224C106.099 265.222 106.099 265.219 106.099 265.217C106.099 265.215 106.099 265.212 106.099 265.21C106.099 265.207 106.099 265.205 106.099 265.202C106.099 265.2 106.099 265.197 106.099 265.195C106.099 265.193 106.099 265.19 106.099 265.188C106.099 265.185 106.098 265.183 106.098 265.18C106.098 265.178 106.098 265.175 106.098 265.173C106.098 265.171 106.098 265.168 106.098 265.166C106.098 265.163 106.098 265.161 106.098 265.158C106.098 265.156 106.098 265.153 106.098 265.151C106.098 265.148 106.098 265.146 106.097 265.143C106.097 265.141 106.097 265.139 106.097 265.136C106.097 265.134 106.097 265.131 106.097 265.129C106.097 265.126 106.097 265.124 106.097 265.121C106.097 265.119 106.097 265.116 106.097 265.114C106.097 265.111 106.097 265.109 106.097 265.106C106.096 265.104 106.096 265.101 106.096 265.099C106.096 265.096 106.096 265.094 106.096 265.091C106.096 265.089 106.096 265.086 106.096 265.084C106.096 265.081 106.096 265.079 106.096 265.076C106.096 265.074 106.096 265.071 106.096 265.069C106.096 265.066 106.095 265.064 106.095 265.061C106.095 265.059 106.095 265.056 106.095 265.054C106.095 265.051 106.095 265.049 106.095 265.046C106.095 265.044 106.095 265.041 106.095 265.039C106.095 265.036 106.095 265.034 106.095 265.031C106.095 265.029 106.095 265.026 106.094 265.024C106.094 265.021 106.094 265.019 106.094 265.016C106.094 265.014 106.094 265.011 106.094 265.009C106.094 265.006 106.094 265.003 106.094 265.001C106.094 264.998 106.094 264.996 106.094 264.993C106.094 264.991 106.094 264.988 106.094 264.986C106.093 264.983 106.093 264.981 106.093 264.978C106.093 264.976 106.093 264.973 106.093 264.97C106.093 264.968 106.093 264.965 106.093 264.963C106.093 264.96 106.093 264.958 106.093 264.955C106.093 264.953 106.093 264.95 106.093 264.947C106.093 264.945 106.092 264.942 106.092 264.94C106.092 264.937 106.092 264.935 106.092 264.932C106.092 264.93 106.092 264.927 106.092 264.924C106.092 264.922 106.092 264.919 106.092 264.917C106.092 264.914 106.092 264.912 106.092 264.909C106.092 264.906 106.091 264.904 106.091 264.901C106.091 264.899 106.091 264.896 106.091 264.893C106.091 264.891 106.091 264.888 106.091 264.886C106.091 264.883 106.091 264.88 106.091 264.878C106.091 264.875 106.091 264.873 106.091 264.87C106.091 264.868 106.091 264.865 106.09 264.862C106.09 264.86 106.09 264.857 106.09 264.854C106.09 264.852 106.09 264.849 106.09 264.847C106.09 264.844 106.09 264.841 106.09 264.839C106.09 264.836 106.09 264.834 106.09 264.831C106.09 264.828 106.09 264.826 106.089 264.823C106.089 264.82 106.089 264.818 106.089 264.815C106.089 264.813 106.089 264.81 106.089 264.807C106.089 264.805 106.089 264.802 106.089 264.799C106.089 264.797 106.089 264.794 106.089 264.792C106.089 264.789 106.089 264.786 106.088 264.784C106.088 264.781 106.088 264.778 106.088 264.776C106.088 264.773 106.088 264.77 106.088 264.768C106.088 264.765 106.088 264.762 106.088 264.76C106.088 264.757 106.088 264.754 106.088 264.752C106.088 264.749 106.088 264.746 106.087 264.744C106.087 264.741 106.087 264.738 106.087 264.736C106.087 264.733 106.087 264.73 106.087 264.728C106.087 264.725 106.087 264.722 106.087 264.72C106.087 264.717 106.087 264.714 106.087 264.712C106.087 264.709 106.087 264.706 106.086 264.704C106.086 264.701 106.086 264.698 106.086 264.696C106.086 264.693 106.086 264.69 106.086 264.688C106.086 264.685 106.086 264.682 106.086 264.679C106.086 264.677 106.086 264.674 106.086 264.671C106.086 264.669 106.086 264.666 106.085 264.663C106.085 264.66 106.085 264.658 106.085 264.655C106.085 264.652 106.085 264.65 106.085 264.647C106.085 264.644 106.085 264.641 106.085 264.639C106.085 264.636 106.085 264.633 106.085 264.631C106.085 264.628 106.085 264.625 106.084 264.622C106.084 264.62 106.084 264.617 106.084 264.614C106.084 264.611 106.084 264.609 106.084 264.606C106.084 264.603 106.084 264.6 106.084 264.598C106.084 264.595 106.084 264.592 106.084 264.59C106.084 264.587 106.083 264.584 106.083 264.581C106.083 264.578 106.083 264.576 106.083 264.573C106.083 264.57 106.083 264.567 106.083 264.565C106.083 264.562 106.083 264.559 106.083 264.556C106.083 264.554 106.083 264.551 106.083 264.548C106.083 264.545 106.082 264.543 106.082 264.54C106.082 264.537 106.082 264.534 106.082 264.531L104.343 264.575ZM101.591 245.273L91.0254 260.749L92.4621 261.729L103.028 246.254L101.591 245.273Z" fill="black"/>
<path d="M61.9922 256.681L45.5368 261.279L32.2258 279.896M61.2778 312.469L62.8422 231.369L61.3234 229.924C62.4485 229.576 63.9319 228.786 64.7303 227.231C65.7282 225.288 67.0005 221.09 70.051 221.014C69.1025 220.705 68.4009 218.42 69.3213 216.164C70.4718 213.345 73.5518 213.223 73.7653 211.299L73.7435 210.427C73.3818 209.913 72.7552 208.568 73.1422 207.302C73.6259 205.72 74.9812 204.117 73.9898 202.833L72.9897 201.201L73.931 200.48C73.9397 199.666 74.1655 197.997 74.9987 197.837C76.0402 197.637 74.5312 196.578 74.5106 195.756C74.4779 194.449 75.5849 193.375 77.8531 193.405" stroke="black" stroke-width="1.7437"/>
<path d="M91.7719 315.405L91.7719 231.723L93.3208 230.311C92.2033 229.939 90.4421 228.789 89.6768 227.217C88.7201 225.253 88.9319 221.76 85.2683 221.243C86.124 220.351 87.0971 219.55 86.0064 216.707C84.9157 213.864 81.4481 213.355 81.2753 211.427L81.3155 210.556C81.688 210.049 82.3429 208.718 81.9828 207.445C81.5326 205.853 80.2115 204.221 81.2298 202.959L82.2642 201.348L81.3383 200.607C81.3468 199.793 81.1564 198.12 80.3267 197.942C79.2896 197.72 80.8207 196.694 80.8586 195.872C80.9189 194.566 79.835 193.468 77.5665 193.451" stroke="black" stroke-width="1.7437"/>
<circle cx="101.382" cy="257.347" r="1.21653" transform="rotate(-1.43176 101.382 257.347)" fill="black" stroke="black" stroke-width="0.975527"/>
<path d="M92.1851 230.197L86.0435 227.916C86.0071 226.457 84.7717 225.717 84.1585 225.529C82.687 225.08 81.5286 225.798 81.1485 226.822L76.2383 225.119L72.0122 226.442C71.9818 225.226 70.7504 224.648 69.5495 225.287C69.1542 225.702 68.3698 226.776 68.3941 227.749L62.3589 229.725" stroke="black" stroke-width="1.53297"/>
<ellipse cx="77.7662" cy="186.201" rx="2.22956" ry="2.2853" transform="rotate(-4.51073 77.7662 186.201)" stroke="black" stroke-width="1.74091"/>
<path d="M67.3593 234.473L67.2883 240.552M69.9086 233.851L69.8375 239.931M66.6919 256.848L66.6334 261.198M69.4725 256.555L69.4683 260.848M66.3296 278.044L66.3171 282.003M69.1659 277.75L69.1533 281.709M66.3936 293.989L66.3365 296.165M69.0627 293.699L69.0056 295.875" stroke="black" stroke-width="1.74017" stroke-linecap="round"/>
<path d="M84.7704 235.325L84.8091 241.341M82.2245 234.695L82.2632 240.711M85.3186 257.47L85.354 261.775M82.5397 257.164L82.5211 261.413M85.568 278.447L85.5595 282.365M82.7334 278.139L82.7249 282.057M85.4191 294.224L85.4646 296.378M82.7516 293.922L82.7972 296.076" stroke="black" stroke-width="1.74017" stroke-linecap="round"/>
<path d="M98.3583 316.361L98.3583 306.118L97.7217 305.186L99.8392 302.903L102.521 303.114L104.592 305.683L104.004 306.702L104.004 315.404" stroke="black" stroke-width="1.95105"/>
<path d="M85.0888 221.434L82.481 221.193" stroke="black" stroke-width="1.25425" stroke-linecap="round"/>
<path d="M76.4969 206.064L76.2836 209.13" stroke="black" stroke-width="1.11489" stroke-linecap="round"/>
<path d="M78.6744 206.097L78.6772 209.186" stroke="black" stroke-width="1.11489" stroke-linecap="round"/>
<path d="M153.452 329.506V313.071V313.689V311.637L155.119 307.942V263.702V259.75H152.461L150.375 256.65H147.554L147.554 251.136L149.092 242.929H156.934C157.384 240.232 160.999 232.755 169.609 232.209C169.942 232.188 170.283 232.177 170.635 232.177V231.023L171.917 229.741L170.635 228.459V227.305H169.609L177.688 220.637" stroke="black" stroke-width="1.67233"/>
<path d="M177.878 220.637L185.956 227.305H184.93V228.459L183.648 229.741L184.93 231.023V232.177C185.282 232.177 185.624 232.188 185.956 232.209C188.029 232.341 189.812 232.874 191.331 233.645C192.589 234.283 193.648 235.053 194.533 235.877" stroke="black" stroke-width="1.67233"/>
<path d="M150.152 256.927L177.879 241.234" stroke="black" stroke-width="2.02031"/>
<path d="M177.308 241.233L194.507 249.964" stroke="black" stroke-width="2.02031"/>
<path d="M155.249 307.754H169.072M154.974 263.234H194.8M186.509 307.179H194.8" stroke="black" stroke-width="1.67233"/>
<path d="M177.878 221.208L177.878 215.486" stroke="black" stroke-width="1.67233"/>
<path d="M177.977 210.552L177.977 205.358" stroke="black" stroke-width="1.67233" stroke-linecap="round"/>
<circle cx="177.88" cy="213.197" r="1.98269" stroke="black" stroke-width="1.75615"/>
<rect x="172.158" y="281.857" width="11.4431" height="11.4431" rx="2.22596" stroke="black" stroke-width="1.6076"/>
<path d="M177.88 304.172H169.298V308.606L171.408 311.467H173.941V321.766L171.408 324.054V333.289H177.88" stroke="black" stroke-width="2.02031"/>
<path d="M177.88 304.172H186.462V308.606L184.352 311.467H181.819V321.766L184.352 324.054V333.289H177.88" stroke="black" stroke-width="2.02031"/>
<path d="M170.778 232.166H184.277" stroke="black" stroke-width="1.67233"/>
<path d="M177.821 232.46V236.593" stroke="black" stroke-width="1.67233" stroke-linecap="round"/>
<path d="M155.563 248.508C155.563 248.97 155.937 249.344 156.399 249.344C156.861 249.344 157.235 248.97 157.235 248.508H155.563ZM156.171 242.542C155.864 243.872 155.563 246.185 155.563 248.013H157.235C157.235 246.318 157.521 244.132 157.801 242.918L156.171 242.542ZM155.563 248.013V248.508H157.235V248.013H155.563Z" fill="black"/>
<path d="M159.04 257.403L159.04 259.751" stroke="black" stroke-width="2.01896" stroke-linecap="round"/>
<path d="M161.429 263.21L161.429 307.248" stroke="black" stroke-width="1.67233" stroke-linecap="round"/>
<path d="M163.735 257.403L163.735 259.751" stroke="black" stroke-width="2.01896" stroke-linecap="round"/>
<path d="M168.43 257.403L168.43 259.751" stroke="black" stroke-width="2.01896" stroke-linecap="round"/>
<path d="M168.43 268.555V270.315" stroke="black" stroke-width="2.01896" stroke-linecap="round"/>
<path d="M161.429 311.568H153.486" stroke="black" stroke-width="1.25425" stroke-linecap="round"/>
<path d="M173.126 257.403L173.126 259.751" stroke="black" stroke-width="2.01896" stroke-linecap="round"/>
<path d="M173.126 268.555V270.315" stroke="black" stroke-width="2.01896" stroke-linecap="round"/>
<path d="M182.516 257.403L182.516 259.751" stroke="black" stroke-width="2.01896" stroke-linecap="round"/>
<path d="M182.516 268.555V270.315" stroke="black" stroke-width="2.01896" stroke-linecap="round"/>
<path d="M191.906 257.403L191.906 259.751" stroke="black" stroke-width="2.01896" stroke-linecap="round"/>
<path d="M177.821 257.403L177.821 259.751" stroke="black" stroke-width="2.01896" stroke-linecap="round"/>
<path d="M177.821 268.555V270.315" stroke="black" stroke-width="2.01896" stroke-linecap="round"/>
<path d="M177.765 288.596L177.765 290.203" stroke="black" stroke-width="2.01896" stroke-linecap="round"/>
<path d="M187.211 257.403L187.211 259.751" stroke="black" stroke-width="2.01896" stroke-linecap="round"/>
<path d="M187.211 268.555V270.315" stroke="black" stroke-width="2.01896" stroke-linecap="round"/>
<path d="M102.361 315.113L127.621 315.188" stroke="black" stroke-width="2.02031"/>
<path d="M103.259 317.339C93.1058 316.196 64.5377 311.176 32.2633 311.176" stroke="black" stroke-width="2.02031"/>
<path d="M127.081 324.108C137.629 325.666 158.726 332.864 158.726 349.202C158.726 350.305 158.564 352.508 157.919 352.508" stroke="black" stroke-width="2.02031"/>
<path d="M127.081 319.646C132.874 320.169 142.356 322.692 150.502 327.212C160.982 333.018 170.058 341.903 170.058 349.522C170.261 350.893 169.404 352.508 167.615 352.508H147.249" stroke="black" stroke-width="2.02031"/>
<path d="M127.079 333.846C130.325 334.868 136.816 339.599 136.816 350.334C136.816 351.06 136.768 352.508 136.569 352.508" stroke="black" stroke-width="2.02031"/>
<path d="M127.08 328.979C133.977 330.269 147.771 336.233 147.771 349.771C147.771 350.684 147.666 352.51 147.244 352.51H32.7951" stroke="black" stroke-width="2.02031"/>
<path d="M126.999 314.827V336.848L126.986 337.497V337.939C126.994 338.073 126.999 338.207 126.999 338.345C126.999 343.887 121.704 348.488 115.03 348.488C108.356 348.488 103.062 343.887 103.062 338.345C103.062 338.207 103.066 338.073 103.074 337.939V337.245L103.062 336.795V314.827" stroke="black" stroke-width="2.02031"/>
<path d="M162.225 275.735H168.655" stroke="black" stroke-width="1.11489" stroke-linecap="round"/>
<path d="M147.756 250.549H150.971" stroke="black" stroke-width="1.11489" stroke-linecap="round"/>
<path d="M172.942 311.103H176.157" stroke="black" stroke-width="1.28608" stroke-linecap="round"/>
<path d="M191.697 297.706L194.377 297.706" stroke="black" stroke-width="1.11489" stroke-linecap="round"/>
<path d="M177.734 254.013L194.179 254.013" stroke="black" stroke-width="1.11489" stroke-linecap="round"/>
<path d="M162.265 297.911L165.47 297.911" stroke="black" stroke-width="1.11489" stroke-linecap="round"/>
<path d="M155.794 287.524L157.937 287.524" stroke="black" stroke-width="1.11489" stroke-linecap="round"/>
<path d="M187.946 275.735L193.84 275.735" stroke="black" stroke-width="1.11489" stroke-linecap="round"/>
<path d="M162.265 294.846L168.397 294.846" stroke="black" stroke-width="1.11489" stroke-linecap="round"/>
<path d="M188.047 318.677L194.736 318.677" stroke="black" stroke-width="1.11489" stroke-linecap="round"/>
<path d="M159.545 318.677L163.726 318.677" stroke="black" stroke-width="1.11489" stroke-linecap="round"/>
<path d="M42.1899 340.575H49.6921" stroke="black" stroke-width="1.07173" stroke-linecap="round"/>
<path d="M92.0259 327.714L94.7052 327.714" stroke="black" stroke-width="1.11489" stroke-linecap="round"/>
<path d="M49.1562 333.073L55.0508 333.073" stroke="black" stroke-width="1.11489" stroke-linecap="round"/>
<mask id="mask0_348_1829" style="mask-type:alpha" maskUnits="userSpaceOnUse" x="100" y="248" width="55" height="80">
<path d="M154.949 307.666V264.046L133.626 248.995L106.799 282.999L100.458 319.094L153.346 327.943V312.195L154.949 307.666Z" fill="#D9D9D9"/>
</mask>
<g mask="url(#mask0_348_1829)">
<path d="M144.288 305.157C145.116 305.983 147.318 307.548 149.495 307.201C151.673 306.854 150.008 308.295 148.904 309.059" stroke="black" stroke-width="1.53297" stroke-linecap="round"/>
<path d="M115.906 314.396C114.298 315.52 112.135 316.43 110.015 315.463C108.683 314.855 107.331 314.329 106.044 313.516C105.712 313.306 105.292 313.164 105.054 312.723C104.644 311.966 105.058 311.262 105.52 310.932C106.128 310.498 106.728 310.034 107.313 309.534C108.42 308.59 109.483 307.524 110.469 306.31C109.555 305.913 108.661 305.437 107.791 304.888C107.48 304.69 107.076 304.541 106.861 304.114C106.532 303.462 106.837 302.778 107.239 302.468C109.03 301.087 110.737 299.615 112.226 297.541C111.223 297.152 110.258 296.663 109.344 296.081C109.059 295.9 108.667 295.719 108.486 295.287C108.14 294.46 108.673 293.893 109.101 293.582C110.721 292.4 112.257 290.887 113.522 288.939C112.748 288.639 111.995 288.258 111.267 287.798C110.985 287.62 110.629 287.432 110.483 286.987C110.314 286.47 110.495 285.821 110.837 285.594C112.721 284.269 114.206 282.552 115.187 280.575C114.549 280.353 113.934 280.055 113.349 279.681C112.795 279.328 112.236 278.176 113.031 277.582C114.494 276.553 115.577 275.198 116.204 273.638C116.204 273.638 117.432 270.5 117.435 270.495C117.695 269.83 118.351 269.816 118.624 270.468C118.624 270.468 119.942 273.622 119.942 273.623C120.611 275.225 121.636 276.291 122.684 277.262C123.009 277.564 123.429 277.881 123.429 278.549C123.429 279.258 122.969 279.537 122.602 279.763C122.081 280.083 121.542 280.341 120.994 280.54L121.831 282.008C122.803 283.5 123.951 284.548 125.16 285.539C125.701 285.981 125.783 287.071 125.229 287.528C124.453 288.168 123.524 288.559 122.674 288.895C123.891 290.814 125.42 292.462 127.155 293.712C127.583 294.019 127.863 294.789 127.527 295.42C127.082 296.257 126.151 296.451 125.503 296.801C125.313 296.905 123.982 297.496 123.982 297.496C125.331 299.436 126.969 301.125 128.782 302.433C129.523 302.968 129.406 304.125 128.734 304.605C127.777 305.289 126.751 305.812 125.737 306.26C127.167 308.095 128.802 309.675 130.609 310.974C131.473 311.595 131.262 312.722 130.493 313.232C129.138 314.129 127.757 314.935 126.321 315.477C125.499 315.788 124.803 315.925 124.174 315.925C123.176 315.925 122.344 315.578 121.434 315.031C120.607 314.533 121.11 312.562 121.949 313.066C123.225 313.836 124.2 314.101 125.984 313.427C126.882 313.088 127.812 312.622 128.849 311.991C127.072 310.542 125.471 308.814 124.071 306.838C122.981 307.149 121.916 306.532 121.093 305.933C120.372 306.984 119.378 307.574 118.382 307.574C117.985 307.574 117.588 307.481 117.209 307.286C116.376 306.857 116.798 304.85 117.656 305.284C118.601 305.771 119.769 305.218 120.365 303.999C120.567 303.587 120.936 303.453 121.24 303.686C122.197 304.42 123.122 305.051 123.936 304.717C124.961 304.299 125.983 303.974 126.989 303.402C125.103 301.811 123.435 299.829 122.105 297.598C121.751 297.002 121.964 296.016 122.48 295.856C123.472 295.548 124.429 295.141 125.335 294.645C123.551 293.097 122.012 291.138 120.833 288.909C120.509 288.297 120.74 287.355 121.247 287.211C121.955 287.009 122.641 286.738 123.297 286.406C121.651 284.89 120.287 282.913 119.384 280.709C119.094 280.026 119.007 278.921 119.725 278.759C120.193 278.652 120.648 278.505 121.086 278.316C120.119 277.319 119.317 276.092 118.761 274.74L118.055 273.047L117.399 274.72C116.849 276.089 116.038 277.308 115.017 278.323C115.476 278.519 115.951 278.668 116.44 278.769C117.125 278.912 117.082 280.008 116.812 280.693C115.932 282.902 114.562 284.851 112.805 286.411C113.504 286.767 114.225 287.046 114.959 287.245C115.47 287.384 115.706 288.333 115.38 288.946C114.213 291.142 112.664 293.054 110.765 294.649C111.691 295.155 112.667 295.564 113.678 295.87C113.968 295.861 114.463 295.799 114.973 295.626C115.525 295.44 116.091 295.127 116.435 294.613C116.699 294.215 117.124 294.208 117.399 294.588C117.741 295.068 118.728 295.657 119.314 295.61C120.214 295.538 120.275 297.658 119.377 297.719C118.661 297.767 117.657 297.32 116.949 296.684C115.936 297.694 114.553 297.92 113.925 297.969C112.628 300.03 111.014 301.852 109.111 303.403C110.076 303.953 111.071 304.406 112.082 304.753C112.617 304.937 112.805 305.986 112.404 306.555C110.968 308.587 109.245 310.404 107.272 311.97C107.995 312.366 108.742 312.695 109.522 313.038C109.821 313.17 110.119 313.301 110.419 313.438C113.773 314.97 117.559 310.459 117.603 310.407C118.312 309.565 119.173 311.204 118.473 312.055C118.419 312.121 117.988 312.636 117.3 313.267L115.908 314.393L115.906 314.396Z" fill="black"/>
<path d="M134.716 298.591C133.257 299.697 131.295 300.595 129.371 299.642C128.162 299.043 126.933 298.524 125.765 297.724C125.464 297.518 125.084 297.377 124.867 296.942C124.494 296.195 124.87 295.502 125.29 295.177C125.842 294.748 126.385 294.291 126.917 293.799C127.921 292.869 128.886 291.817 129.782 290.622C128.953 290.231 128.14 289.762 127.352 289.22C127.069 289.024 126.702 288.879 126.506 288.457C126.207 287.814 126.484 287.14 126.85 286.836C128.475 285.476 130.025 284.026 131.375 281.982C130.465 281.598 129.59 281.116 128.76 280.543C128.502 280.364 128.146 280.186 127.982 279.76C127.667 278.945 128.152 278.387 128.542 278.08C130.012 276.915 131.405 275.426 132.553 273.506C131.851 273.211 131.167 272.834 130.505 272.381C130.25 272.205 129.928 272.02 129.796 271.583C129.643 271.072 129.805 270.432 130.116 270.209C131.826 268.904 133.173 267.211 134.063 265.265C133.482 265.046 132.925 264.751 132.395 264.385C131.892 264.037 131.384 262.901 132.106 262.318C133.435 261.303 134.419 259.97 134.988 258.432C134.988 258.432 136.101 255.341 136.103 255.335C136.339 254.681 136.935 254.667 137.183 255.309C137.183 255.309 138.378 258.416 138.38 258.416C138.986 259.994 139.918 261.045 140.87 262.001C141.166 262.298 141.547 262.611 141.547 263.271C141.547 263.969 141.126 264.245 140.795 264.467C140.321 264.783 139.833 265.037 139.336 265.233L140.098 266.68C140.981 268.15 142.021 269.183 143.117 270.157C143.608 270.592 143.682 271.666 143.179 272.116C142.476 272.747 141.631 273.131 140.86 273.463C141.964 275.355 143.353 276.979 144.927 278.209C145.315 278.513 145.57 279.271 145.266 279.893C144.862 280.718 144.019 280.908 143.432 281.253C143.259 281.354 142.047 281.939 142.047 281.939C143.272 283.85 144.76 285.514 146.405 286.802C147.077 287.329 146.971 288.47 146.362 288.943C145.493 289.616 144.564 290.132 143.643 290.574C144.942 292.382 146.423 293.939 148.064 295.219C148.848 295.831 148.658 296.94 147.96 297.443C146.731 298.328 145.475 299.121 144.172 299.656C143.426 299.962 142.796 300.097 142.225 300.097C141.319 300.097 140.563 299.756 139.738 299.217C138.987 298.727 139.441 296.785 140.201 297.283C141.361 298.04 142.246 298.303 143.865 297.639C144.679 297.304 145.524 296.846 146.465 296.224C144.853 294.796 143.397 293.093 142.127 291.147C141.137 291.453 140.173 290.845 139.425 290.256C138.771 291.291 137.866 291.872 136.961 291.872C136.602 291.872 136.242 291.78 135.899 291.589C135.142 291.168 135.527 289.19 136.305 289.618C137.163 290.098 138.223 289.554 138.764 288.352C138.948 287.945 139.284 287.814 139.56 288.043C140.429 288.767 141.27 289.389 142.009 289.06C142.94 288.649 143.865 288.328 144.778 287.764C143.066 286.196 141.551 284.244 140.346 282.046C140.024 281.459 140.218 280.487 140.687 280.328C141.588 280.024 142.455 279.624 143.278 279.136C141.659 277.61 140.262 275.682 139.192 273.485C138.898 272.882 139.109 271.954 139.569 271.812C140.211 271.613 140.833 271.346 141.427 271.017C139.933 269.524 138.697 267.576 137.877 265.405C137.614 264.734 137.533 263.644 138.185 263.484C138.609 263.379 139.024 263.233 139.42 263.047C138.543 262.064 137.815 260.855 137.31 259.523L136.668 257.856L136.074 259.504C135.575 260.851 134.838 262.055 133.911 263.054C134.328 263.246 134.761 263.393 135.204 263.493C135.827 263.633 135.785 264.714 135.541 265.388C134.742 267.563 133.5 269.485 131.907 271.021C132.541 271.371 133.194 271.647 133.861 271.842C134.325 271.979 134.539 272.912 134.243 273.518C133.184 275.682 131.777 277.566 130.053 279.136C130.894 279.635 131.78 280.037 132.697 280.337C132.961 280.328 133.411 280.266 133.875 280.097C134.376 279.914 134.891 279.605 135.202 279.098C135.443 278.707 135.825 278.698 136.074 279.075C136.385 279.548 137.282 280.129 137.812 280.081C138.628 280.01 138.685 282.099 137.87 282.159C137.221 282.207 136.309 281.766 135.666 281.141C134.746 282.134 133.49 282.358 132.921 282.406C131.744 284.436 130.279 286.232 128.551 287.761C129.426 288.301 130.333 288.747 131.25 289.09C131.738 289.271 131.906 290.306 131.541 290.866C130.237 292.869 128.673 294.658 126.883 296.201C127.54 296.592 128.217 296.915 128.924 297.255C129.195 297.384 129.468 297.514 129.739 297.648C132.784 299.157 136.218 294.713 136.257 294.663C136.901 293.833 137.684 295.449 137.048 296.286C136.998 296.35 136.609 296.858 135.986 297.48L134.721 298.59L134.716 298.591Z" fill="black"/>
<path d="M141.867 276.835C143.151 275.705 143.268 275.307 143.773 273.723C143.773 273.723 144.761 270.539 144.763 270.532C144.973 269.858 145.563 269.791 145.838 270.411C145.838 270.411 147.159 273.406 147.16 273.408C147.831 274.93 148.803 275.895 149.792 276.766C150.099 277.036 150.492 277.314 150.52 277.973C150.549 278.67 150.141 278.983 149.818 279.233C149.359 279.591 148.881 279.888 148.393 280.128L149.212 281.505C150.153 282.893 151.233 283.834 152.368 284.71C152.876 285.101 152.994 286.166 152.51 286.66C151.833 287.353 151.008 287.81 150.251 288.21C151.431 290 152.883 291.499 154.505 292.589C154.905 292.857 155.191 293.591 154.911 294.238C154.541 295.097 153.708 295.362 153.135 295.758C152.966 295.875 151.782 296.565 151.782 296.565C153.083 298.364 156.33 301.034 156.33 301.034L154.746 302.134C154.746 302.134 151.378 298.906 150.085 296.819C149.74 296.263 149.895 295.274 150.357 295.075C151.243 294.693 152.091 294.217 152.892 293.655C151.215 292.276 149.743 290.473 148.585 288.376C148.267 287.8 148.438 286.854 148.893 286.673C149.526 286.417 150.136 286.097 150.717 285.716C149.165 284.358 147.848 282.524 146.941 280.428C146.651 279.781 146.529 278.7 147.172 278.483C147.591 278.341 147.998 278.16 148.386 277.938C147.469 277.035 146.694 275.892 146.136 274.606L145.424 272.999L144.9 274.697C144.457 276.087 144.175 276.828 143.29 277.907C143.714 278.062 143.747 278.695 144.194 278.755L143.807 278.858L142.73 277.845L141.867 276.834V276.835Z" fill="black"/>
</g>
<path d="M130.421 310.664C131.536 311.314 135.368 311.709 138.155 308.991C139.758 311.012 143.242 312.197 145.193 311.012" stroke="black" stroke-width="1.67233" stroke-linecap="round"/>
<path d="M140.88 319.002C142.551 319.346 144.481 319.061 145.817 317.138C149.336 319.029 150.922 318.795 152.822 317.828" stroke="black" stroke-width="1.67233" stroke-linecap="round"/>
<defs>
<linearGradient id="paint0_linear_348_1829" x1="256.456" y1="244.307" x2="140.269" y2="84.372" gradientUnits="userSpaceOnUse">
<stop stop-color="#C5B8AB"/>
<stop offset="1" stop-color="#A59482"/>
</linearGradient>
<linearGradient id="paint1_linear_348_1829" x1="53.0905" y1="210.236" x2="51.2987" y2="210.212" gradientUnits="userSpaceOnUse">
<stop stop-color="#C5B8AB"/>
<stop offset="1" stop-color="#A59482"/>
</linearGradient>
<linearGradient id="paint2_linear_348_1829" x1="73.0211" y1="223.864" x2="71.2293" y2="223.846" gradientUnits="userSpaceOnUse">
<stop stop-color="#C5B8AB"/>
<stop offset="1" stop-color="#A59482"/>
</linearGradient>
<linearGradient id="paint3_linear_348_1829" x1="93.7838" y1="231.36" x2="91.9919" y2="231.344" gradientUnits="userSpaceOnUse">
<stop stop-color="#C5B8AB"/>
<stop offset="1" stop-color="#A59482"/>
</linearGradient>
<linearGradient id="paint4_linear_348_1829" x1="114.546" y1="233.403" x2="112.754" y2="233.388" gradientUnits="userSpaceOnUse">
<stop stop-color="#C5B8AB"/>
<stop offset="1" stop-color="#A59482"/>
</linearGradient>
<linearGradient id="paint5_linear_348_1829" x1="134.477" y1="231.36" x2="132.685" y2="231.344" gradientUnits="userSpaceOnUse">
<stop stop-color="#C5B8AB"/>
<stop offset="1" stop-color="#A59482"/>
</linearGradient>
<linearGradient id="paint6_linear_348_1829" x1="154.408" y1="224.546" x2="152.616" y2="224.528" gradientUnits="userSpaceOnUse">
<stop stop-color="#C5B8AB"/>
<stop offset="1" stop-color="#A59482"/>
</linearGradient>
<linearGradient id="paint7_linear_348_1829" x1="175.172" y1="211.599" x2="173.38" y2="211.576" gradientUnits="userSpaceOnUse">
<stop stop-color="#C5B8AB"/>
<stop offset="1" stop-color="#A59482"/>
</linearGradient>
<linearGradient id="paint8_linear_348_1829" x1="279.769" y1="584.161" x2="-25.0459" y2="417.493" gradientUnits="userSpaceOnUse">
<stop stop-color="#C5B8AB"/>
<stop offset="1" stop-color="#A59482"/>
</linearGradient>
</defs>
</svg>
